M48
; DRILL file {KiCad (5.1.5)-3} date 7/3/2021 8:54:42 PM
; FORMAT={-:-/ absolute / metric / decimal}
; #@! TF.CreationDate,2021-07-03T20:54:42-04:00
; #@! TF.GenerationSoftware,Kicad,Pcbnew,(5.1.5)-3
; #@! TF.FileFunction,Plated,1,2,PTH
FMAT,2
METRIC
T1C0.700
T2C0.762
T3C0.800
T4C0.920
T5C1.000
T6C1.300
T7C1.520
T8C1.800
T9C3.200
%
G90
G05
T1
X103.38Y-85.0
X111.0Y-85.0
X90.38Y-85.0
X98.0Y-85.0
T2
X94.0Y-88.0
X94.0Y-105.0
X133.5Y-88.0
X133.5Y-105.0
T3
X115.84Y-93.0
X126.0Y-93.0
X117.5Y-100.0
X122.5Y-100.0
X122.0Y-85.0
X124.5Y-85.0
X103.0Y-93.0
X103.0Y-95.54
X103.0Y-98.08
X103.0Y-100.62
X110.62Y-93.0
X110.62Y-95.54
X110.62Y-98.08
X110.62Y-100.62
T4
X97.8Y-93.7
T6
X130.0Y-97.0
X130.0Y-112.24
T7
X114.0Y-113.0
X119.08Y-113.0
X124.16Y-113.0
X103.0Y-113.0
X108.08Y-113.0
T8
X90.0Y-89.9
X90.0Y-97.5
T9
X87.0Y-84.0
X135.5Y-114.5
X139.0Y-84.0
T5
X89.0Y-108.0G85X89.0Y-110.0
G05
X91.0Y-113.7G85X93.0Y-113.7
G05
X95.0Y-108.0G85X95.0Y-110.0
G05
T0
M30
