G04 #@! TF.GenerationSoftware,KiCad,Pcbnew,(5.1.5)-3*
G04 #@! TF.CreationDate,2021-07-03T20:54:04-04:00*
G04 #@! TF.ProjectId,LukeCopy,4c756b65-436f-4707-992e-6b696361645f,rev?*
G04 #@! TF.SameCoordinates,Original*
G04 #@! TF.FileFunction,Soldermask,Top*
G04 #@! TF.FilePolarity,Negative*
%FSLAX46Y46*%
G04 Gerber Fmt 4.6, Leading zero omitted, Abs format (unit mm)*
G04 Created by KiCad (PCBNEW (5.1.5)-3) date 2021-07-03 20:54:04*
%MOMM*%
%LPD*%
G04 APERTURE LIST*
%ADD10C,0.100000*%
G04 APERTURE END LIST*
D10*
G36*
X93126366Y-111915695D02*
G01*
X93283460Y-111963349D01*
X93428231Y-112040731D01*
X93555128Y-112144872D01*
X93659269Y-112271769D01*
X93736651Y-112416540D01*
X93784305Y-112573634D01*
X93801000Y-112743140D01*
X93801000Y-114656860D01*
X93784305Y-114826366D01*
X93736651Y-114983460D01*
X93659269Y-115128231D01*
X93555128Y-115255128D01*
X93428231Y-115359269D01*
X93283460Y-115436651D01*
X93126366Y-115484305D01*
X92956860Y-115501000D01*
X91043140Y-115501000D01*
X90873634Y-115484305D01*
X90716540Y-115436651D01*
X90571769Y-115359269D01*
X90444872Y-115255128D01*
X90340731Y-115128231D01*
X90263349Y-114983460D01*
X90215695Y-114826366D01*
X90199000Y-114656860D01*
X90199000Y-112743140D01*
X90215695Y-112573634D01*
X90263349Y-112416540D01*
X90340731Y-112271769D01*
X90444872Y-112144872D01*
X90571769Y-112040731D01*
X90716540Y-111963349D01*
X90873634Y-111915695D01*
X91043140Y-111899000D01*
X92956860Y-111899000D01*
X93126366Y-111915695D01*
G37*
G36*
X124462585Y-111478802D02*
G01*
X124612410Y-111508604D01*
X124894674Y-111625521D01*
X125148705Y-111795259D01*
X125364741Y-112011295D01*
X125534479Y-112265326D01*
X125651396Y-112547590D01*
X125711000Y-112847240D01*
X125711000Y-113152760D01*
X125651396Y-113452410D01*
X125534479Y-113734674D01*
X125364741Y-113988705D01*
X125148705Y-114204741D01*
X124894674Y-114374479D01*
X124612410Y-114491396D01*
X124462585Y-114521198D01*
X124312761Y-114551000D01*
X124007239Y-114551000D01*
X123857415Y-114521198D01*
X123707590Y-114491396D01*
X123425326Y-114374479D01*
X123171295Y-114204741D01*
X122955259Y-113988705D01*
X122785521Y-113734674D01*
X122668604Y-113452410D01*
X122609000Y-113152760D01*
X122609000Y-112847240D01*
X122668604Y-112547590D01*
X122785521Y-112265326D01*
X122955259Y-112011295D01*
X123171295Y-111795259D01*
X123425326Y-111625521D01*
X123707590Y-111508604D01*
X123857415Y-111478802D01*
X124007239Y-111449000D01*
X124312761Y-111449000D01*
X124462585Y-111478802D01*
G37*
G36*
X104551000Y-114551000D02*
G01*
X101449000Y-114551000D01*
X101449000Y-111449000D01*
X104551000Y-111449000D01*
X104551000Y-114551000D01*
G37*
G36*
X108382585Y-111478802D02*
G01*
X108532410Y-111508604D01*
X108814674Y-111625521D01*
X109068705Y-111795259D01*
X109284741Y-112011295D01*
X109454479Y-112265326D01*
X109571396Y-112547590D01*
X109631000Y-112847240D01*
X109631000Y-113152760D01*
X109571396Y-113452410D01*
X109454479Y-113734674D01*
X109284741Y-113988705D01*
X109068705Y-114204741D01*
X108814674Y-114374479D01*
X108532410Y-114491396D01*
X108382585Y-114521198D01*
X108232761Y-114551000D01*
X107927239Y-114551000D01*
X107777415Y-114521198D01*
X107627590Y-114491396D01*
X107345326Y-114374479D01*
X107091295Y-114204741D01*
X106875259Y-113988705D01*
X106705521Y-113734674D01*
X106588604Y-113452410D01*
X106529000Y-113152760D01*
X106529000Y-112847240D01*
X106588604Y-112547590D01*
X106705521Y-112265326D01*
X106875259Y-112011295D01*
X107091295Y-111795259D01*
X107345326Y-111625521D01*
X107627590Y-111508604D01*
X107777415Y-111478802D01*
X107927239Y-111449000D01*
X108232761Y-111449000D01*
X108382585Y-111478802D01*
G37*
G36*
X115551000Y-114551000D02*
G01*
X112449000Y-114551000D01*
X112449000Y-111449000D01*
X115551000Y-111449000D01*
X115551000Y-114551000D01*
G37*
G36*
X119382585Y-111478802D02*
G01*
X119532410Y-111508604D01*
X119814674Y-111625521D01*
X120068705Y-111795259D01*
X120284741Y-112011295D01*
X120454479Y-112265326D01*
X120571396Y-112547590D01*
X120631000Y-112847240D01*
X120631000Y-113152760D01*
X120571396Y-113452410D01*
X120454479Y-113734674D01*
X120284741Y-113988705D01*
X120068705Y-114204741D01*
X119814674Y-114374479D01*
X119532410Y-114491396D01*
X119382585Y-114521198D01*
X119232761Y-114551000D01*
X118927239Y-114551000D01*
X118777415Y-114521198D01*
X118627590Y-114491396D01*
X118345326Y-114374479D01*
X118091295Y-114204741D01*
X117875259Y-113988705D01*
X117705521Y-113734674D01*
X117588604Y-113452410D01*
X117529000Y-113152760D01*
X117529000Y-112847240D01*
X117588604Y-112547590D01*
X117705521Y-112265326D01*
X117875259Y-112011295D01*
X118091295Y-111795259D01*
X118345326Y-111625521D01*
X118627590Y-111508604D01*
X118777415Y-111478802D01*
X118927239Y-111449000D01*
X119232761Y-111449000D01*
X119382585Y-111478802D01*
G37*
G36*
X130302585Y-110718802D02*
G01*
X130452410Y-110748604D01*
X130734674Y-110865521D01*
X130988705Y-111035259D01*
X131204741Y-111251295D01*
X131374479Y-111505326D01*
X131491396Y-111787590D01*
X131551000Y-112087240D01*
X131551000Y-112392760D01*
X131491396Y-112692410D01*
X131374479Y-112974674D01*
X131204741Y-113228705D01*
X130988705Y-113444741D01*
X130734674Y-113614479D01*
X130452410Y-113731396D01*
X130302585Y-113761198D01*
X130152761Y-113791000D01*
X129847239Y-113791000D01*
X129697415Y-113761198D01*
X129547590Y-113731396D01*
X129265326Y-113614479D01*
X129011295Y-113444741D01*
X128795259Y-113228705D01*
X128625521Y-112974674D01*
X128508604Y-112692410D01*
X128449000Y-112392760D01*
X128449000Y-112087240D01*
X128508604Y-111787590D01*
X128625521Y-111505326D01*
X128795259Y-111251295D01*
X129011295Y-111035259D01*
X129265326Y-110865521D01*
X129547590Y-110748604D01*
X129697415Y-110718802D01*
X129847239Y-110689000D01*
X130152761Y-110689000D01*
X130302585Y-110718802D01*
G37*
G36*
X96801000Y-110801000D02*
G01*
X93199000Y-110801000D01*
X93199000Y-107199000D01*
X96801000Y-107199000D01*
X96801000Y-110801000D01*
G37*
G36*
X89976979Y-107213293D02*
G01*
X90110625Y-107253834D01*
X90233784Y-107319664D01*
X90341740Y-107408260D01*
X90430336Y-107516216D01*
X90496166Y-107639375D01*
X90536707Y-107773021D01*
X90551000Y-107918140D01*
X90551000Y-110081860D01*
X90536707Y-110226979D01*
X90496166Y-110360625D01*
X90430336Y-110483784D01*
X90341740Y-110591740D01*
X90233784Y-110680336D01*
X90110625Y-110746166D01*
X89976979Y-110786707D01*
X89831860Y-110801000D01*
X88168140Y-110801000D01*
X88023021Y-110786707D01*
X87889375Y-110746166D01*
X87766216Y-110680336D01*
X87658260Y-110591740D01*
X87569664Y-110483784D01*
X87503834Y-110360625D01*
X87463293Y-110226979D01*
X87449000Y-110081860D01*
X87449000Y-107918140D01*
X87463293Y-107773021D01*
X87503834Y-107639375D01*
X87569664Y-107516216D01*
X87658260Y-107408260D01*
X87766216Y-107319664D01*
X87889375Y-107253834D01*
X88023021Y-107213293D01*
X88168140Y-107199000D01*
X89831860Y-107199000D01*
X89976979Y-107213293D01*
G37*
G36*
X94237142Y-104218242D02*
G01*
X94385101Y-104279529D01*
X94518255Y-104368499D01*
X94631501Y-104481745D01*
X94720471Y-104614899D01*
X94781758Y-104762858D01*
X94813000Y-104919925D01*
X94813000Y-105080075D01*
X94781758Y-105237142D01*
X94720471Y-105385101D01*
X94631501Y-105518255D01*
X94518255Y-105631501D01*
X94385101Y-105720471D01*
X94237142Y-105781758D01*
X94080075Y-105813000D01*
X93919925Y-105813000D01*
X93762858Y-105781758D01*
X93614899Y-105720471D01*
X93481745Y-105631501D01*
X93368499Y-105518255D01*
X93279529Y-105385101D01*
X93218242Y-105237142D01*
X93187000Y-105080075D01*
X93187000Y-104919925D01*
X93218242Y-104762858D01*
X93279529Y-104614899D01*
X93368499Y-104481745D01*
X93481745Y-104368499D01*
X93614899Y-104279529D01*
X93762858Y-104218242D01*
X93919925Y-104187000D01*
X94080075Y-104187000D01*
X94237142Y-104218242D01*
G37*
G36*
X133737142Y-104218242D02*
G01*
X133885101Y-104279529D01*
X134018255Y-104368499D01*
X134131501Y-104481745D01*
X134220471Y-104614899D01*
X134281758Y-104762858D01*
X134313000Y-104919925D01*
X134313000Y-105080075D01*
X134281758Y-105237142D01*
X134220471Y-105385101D01*
X134131501Y-105518255D01*
X134018255Y-105631501D01*
X133885101Y-105720471D01*
X133737142Y-105781758D01*
X133580075Y-105813000D01*
X133419925Y-105813000D01*
X133262858Y-105781758D01*
X133114899Y-105720471D01*
X132981745Y-105631501D01*
X132868499Y-105518255D01*
X132779529Y-105385101D01*
X132718242Y-105237142D01*
X132687000Y-105080075D01*
X132687000Y-104919925D01*
X132718242Y-104762858D01*
X132779529Y-104614899D01*
X132868499Y-104481745D01*
X132981745Y-104368499D01*
X133114899Y-104279529D01*
X133262858Y-104218242D01*
X133419925Y-104187000D01*
X133580075Y-104187000D01*
X133737142Y-104218242D01*
G37*
G36*
X110868228Y-99801703D02*
G01*
X111023100Y-99865853D01*
X111162481Y-99958985D01*
X111281015Y-100077519D01*
X111374147Y-100216900D01*
X111438297Y-100371772D01*
X111471000Y-100536184D01*
X111471000Y-100703816D01*
X111438297Y-100868228D01*
X111374147Y-101023100D01*
X111281015Y-101162481D01*
X111162481Y-101281015D01*
X111023100Y-101374147D01*
X110868228Y-101438297D01*
X110703816Y-101471000D01*
X110536184Y-101471000D01*
X110371772Y-101438297D01*
X110216900Y-101374147D01*
X110077519Y-101281015D01*
X109958985Y-101162481D01*
X109865853Y-101023100D01*
X109801703Y-100868228D01*
X109769000Y-100703816D01*
X109769000Y-100536184D01*
X109801703Y-100371772D01*
X109865853Y-100216900D01*
X109958985Y-100077519D01*
X110077519Y-99958985D01*
X110216900Y-99865853D01*
X110371772Y-99801703D01*
X110536184Y-99769000D01*
X110703816Y-99769000D01*
X110868228Y-99801703D01*
G37*
G36*
X103248228Y-99801703D02*
G01*
X103403100Y-99865853D01*
X103542481Y-99958985D01*
X103661015Y-100077519D01*
X103754147Y-100216900D01*
X103818297Y-100371772D01*
X103851000Y-100536184D01*
X103851000Y-100703816D01*
X103818297Y-100868228D01*
X103754147Y-101023100D01*
X103661015Y-101162481D01*
X103542481Y-101281015D01*
X103403100Y-101374147D01*
X103248228Y-101438297D01*
X103083816Y-101471000D01*
X102916184Y-101471000D01*
X102751772Y-101438297D01*
X102596900Y-101374147D01*
X102457519Y-101281015D01*
X102338985Y-101162481D01*
X102245853Y-101023100D01*
X102181703Y-100868228D01*
X102149000Y-100703816D01*
X102149000Y-100536184D01*
X102181703Y-100371772D01*
X102245853Y-100216900D01*
X102338985Y-100077519D01*
X102457519Y-99958985D01*
X102596900Y-99865853D01*
X102751772Y-99801703D01*
X102916184Y-99769000D01*
X103083816Y-99769000D01*
X103248228Y-99801703D01*
G37*
G36*
X117748228Y-99181703D02*
G01*
X117903100Y-99245853D01*
X118042481Y-99338985D01*
X118161015Y-99457519D01*
X118254147Y-99596900D01*
X118318297Y-99751772D01*
X118351000Y-99916184D01*
X118351000Y-100083816D01*
X118318297Y-100248228D01*
X118254147Y-100403100D01*
X118161015Y-100542481D01*
X118042481Y-100661015D01*
X117903100Y-100754147D01*
X117748228Y-100818297D01*
X117583816Y-100851000D01*
X117416184Y-100851000D01*
X117251772Y-100818297D01*
X117096900Y-100754147D01*
X116957519Y-100661015D01*
X116838985Y-100542481D01*
X116745853Y-100403100D01*
X116681703Y-100248228D01*
X116649000Y-100083816D01*
X116649000Y-99916184D01*
X116681703Y-99751772D01*
X116745853Y-99596900D01*
X116838985Y-99457519D01*
X116957519Y-99338985D01*
X117096900Y-99245853D01*
X117251772Y-99181703D01*
X117416184Y-99149000D01*
X117583816Y-99149000D01*
X117748228Y-99181703D01*
G37*
G36*
X122748228Y-99181703D02*
G01*
X122903100Y-99245853D01*
X123042481Y-99338985D01*
X123161015Y-99457519D01*
X123254147Y-99596900D01*
X123318297Y-99751772D01*
X123351000Y-99916184D01*
X123351000Y-100083816D01*
X123318297Y-100248228D01*
X123254147Y-100403100D01*
X123161015Y-100542481D01*
X123042481Y-100661015D01*
X122903100Y-100754147D01*
X122748228Y-100818297D01*
X122583816Y-100851000D01*
X122416184Y-100851000D01*
X122251772Y-100818297D01*
X122096900Y-100754147D01*
X121957519Y-100661015D01*
X121838985Y-100542481D01*
X121745853Y-100403100D01*
X121681703Y-100248228D01*
X121649000Y-100083816D01*
X121649000Y-99916184D01*
X121681703Y-99751772D01*
X121745853Y-99596900D01*
X121838985Y-99457519D01*
X121957519Y-99338985D01*
X122096900Y-99245853D01*
X122251772Y-99181703D01*
X122416184Y-99149000D01*
X122583816Y-99149000D01*
X122748228Y-99181703D01*
G37*
G36*
X90302585Y-95978802D02*
G01*
X90452410Y-96008604D01*
X90734674Y-96125521D01*
X90988705Y-96295259D01*
X91204741Y-96511295D01*
X91374479Y-96765326D01*
X91491396Y-97047590D01*
X91551000Y-97347240D01*
X91551000Y-97652760D01*
X91491396Y-97952410D01*
X91374479Y-98234674D01*
X91204741Y-98488705D01*
X90988705Y-98704741D01*
X90734674Y-98874479D01*
X90452410Y-98991396D01*
X90302585Y-99021198D01*
X90152761Y-99051000D01*
X89847239Y-99051000D01*
X89697415Y-99021198D01*
X89547590Y-98991396D01*
X89265326Y-98874479D01*
X89011295Y-98704741D01*
X88795259Y-98488705D01*
X88625521Y-98234674D01*
X88508604Y-97952410D01*
X88449000Y-97652760D01*
X88449000Y-97347240D01*
X88508604Y-97047590D01*
X88625521Y-96765326D01*
X88795259Y-96511295D01*
X89011295Y-96295259D01*
X89265326Y-96125521D01*
X89547590Y-96008604D01*
X89697415Y-95978802D01*
X89847239Y-95949000D01*
X90152761Y-95949000D01*
X90302585Y-95978802D01*
G37*
G36*
X110868228Y-97261703D02*
G01*
X111023100Y-97325853D01*
X111162481Y-97418985D01*
X111281015Y-97537519D01*
X111374147Y-97676900D01*
X111438297Y-97831772D01*
X111471000Y-97996184D01*
X111471000Y-98163816D01*
X111438297Y-98328228D01*
X111374147Y-98483100D01*
X111281015Y-98622481D01*
X111162481Y-98741015D01*
X111023100Y-98834147D01*
X110868228Y-98898297D01*
X110703816Y-98931000D01*
X110536184Y-98931000D01*
X110371772Y-98898297D01*
X110216900Y-98834147D01*
X110077519Y-98741015D01*
X109958985Y-98622481D01*
X109865853Y-98483100D01*
X109801703Y-98328228D01*
X109769000Y-98163816D01*
X109769000Y-97996184D01*
X109801703Y-97831772D01*
X109865853Y-97676900D01*
X109958985Y-97537519D01*
X110077519Y-97418985D01*
X110216900Y-97325853D01*
X110371772Y-97261703D01*
X110536184Y-97229000D01*
X110703816Y-97229000D01*
X110868228Y-97261703D01*
G37*
G36*
X103248228Y-97261703D02*
G01*
X103403100Y-97325853D01*
X103542481Y-97418985D01*
X103661015Y-97537519D01*
X103754147Y-97676900D01*
X103818297Y-97831772D01*
X103851000Y-97996184D01*
X103851000Y-98163816D01*
X103818297Y-98328228D01*
X103754147Y-98483100D01*
X103661015Y-98622481D01*
X103542481Y-98741015D01*
X103403100Y-98834147D01*
X103248228Y-98898297D01*
X103083816Y-98931000D01*
X102916184Y-98931000D01*
X102751772Y-98898297D01*
X102596900Y-98834147D01*
X102457519Y-98741015D01*
X102338985Y-98622481D01*
X102245853Y-98483100D01*
X102181703Y-98328228D01*
X102149000Y-98163816D01*
X102149000Y-97996184D01*
X102181703Y-97831772D01*
X102245853Y-97676900D01*
X102338985Y-97537519D01*
X102457519Y-97418985D01*
X102596900Y-97325853D01*
X102751772Y-97261703D01*
X102916184Y-97229000D01*
X103083816Y-97229000D01*
X103248228Y-97261703D01*
G37*
G36*
X130302585Y-95478802D02*
G01*
X130452410Y-95508604D01*
X130734674Y-95625521D01*
X130988705Y-95795259D01*
X131204741Y-96011295D01*
X131374479Y-96265326D01*
X131491396Y-96547590D01*
X131551000Y-96847240D01*
X131551000Y-97152760D01*
X131491396Y-97452410D01*
X131374479Y-97734674D01*
X131204741Y-97988705D01*
X130988705Y-98204741D01*
X130734674Y-98374479D01*
X130452410Y-98491396D01*
X130302585Y-98521198D01*
X130152761Y-98551000D01*
X129847239Y-98551000D01*
X129697415Y-98521198D01*
X129547590Y-98491396D01*
X129265326Y-98374479D01*
X129011295Y-98204741D01*
X128795259Y-97988705D01*
X128625521Y-97734674D01*
X128508604Y-97452410D01*
X128449000Y-97152760D01*
X128449000Y-96847240D01*
X128508604Y-96547590D01*
X128625521Y-96265326D01*
X128795259Y-96011295D01*
X129011295Y-95795259D01*
X129265326Y-95625521D01*
X129547590Y-95508604D01*
X129697415Y-95478802D01*
X129847239Y-95449000D01*
X130152761Y-95449000D01*
X130302585Y-95478802D01*
G37*
G36*
X110868228Y-94721703D02*
G01*
X111023100Y-94785853D01*
X111162481Y-94878985D01*
X111281015Y-94997519D01*
X111374147Y-95136900D01*
X111438297Y-95291772D01*
X111471000Y-95456184D01*
X111471000Y-95623816D01*
X111438297Y-95788228D01*
X111374147Y-95943100D01*
X111281015Y-96082481D01*
X111162481Y-96201015D01*
X111023100Y-96294147D01*
X110868228Y-96358297D01*
X110703816Y-96391000D01*
X110536184Y-96391000D01*
X110371772Y-96358297D01*
X110216900Y-96294147D01*
X110077519Y-96201015D01*
X109958985Y-96082481D01*
X109865853Y-95943100D01*
X109801703Y-95788228D01*
X109769000Y-95623816D01*
X109769000Y-95456184D01*
X109801703Y-95291772D01*
X109865853Y-95136900D01*
X109958985Y-94997519D01*
X110077519Y-94878985D01*
X110216900Y-94785853D01*
X110371772Y-94721703D01*
X110536184Y-94689000D01*
X110703816Y-94689000D01*
X110868228Y-94721703D01*
G37*
G36*
X103248228Y-94721703D02*
G01*
X103403100Y-94785853D01*
X103542481Y-94878985D01*
X103661015Y-94997519D01*
X103754147Y-95136900D01*
X103818297Y-95291772D01*
X103851000Y-95456184D01*
X103851000Y-95623816D01*
X103818297Y-95788228D01*
X103754147Y-95943100D01*
X103661015Y-96082481D01*
X103542481Y-96201015D01*
X103403100Y-96294147D01*
X103248228Y-96358297D01*
X103083816Y-96391000D01*
X102916184Y-96391000D01*
X102751772Y-96358297D01*
X102596900Y-96294147D01*
X102457519Y-96201015D01*
X102338985Y-96082481D01*
X102245853Y-95943100D01*
X102181703Y-95788228D01*
X102149000Y-95623816D01*
X102149000Y-95456184D01*
X102181703Y-95291772D01*
X102245853Y-95136900D01*
X102338985Y-94997519D01*
X102457519Y-94878985D01*
X102596900Y-94785853D01*
X102751772Y-94721703D01*
X102916184Y-94689000D01*
X103083816Y-94689000D01*
X103248228Y-94721703D01*
G37*
G36*
X98106564Y-92689389D02*
G01*
X98257170Y-92751772D01*
X98297835Y-92768616D01*
X98469973Y-92883635D01*
X98616365Y-93030027D01*
X98731385Y-93202167D01*
X98810611Y-93393436D01*
X98851000Y-93596484D01*
X98851000Y-93803516D01*
X98810611Y-94006564D01*
X98731385Y-94197833D01*
X98731384Y-94197835D01*
X98616365Y-94369973D01*
X98469973Y-94516365D01*
X98297835Y-94631384D01*
X98297834Y-94631385D01*
X98297833Y-94631385D01*
X98106564Y-94710611D01*
X97903516Y-94751000D01*
X97696484Y-94751000D01*
X97493436Y-94710611D01*
X97302167Y-94631385D01*
X97302166Y-94631385D01*
X97302165Y-94631384D01*
X97130027Y-94516365D01*
X96983635Y-94369973D01*
X96868616Y-94197835D01*
X96868615Y-94197833D01*
X96789389Y-94006564D01*
X96749000Y-93803516D01*
X96749000Y-93596484D01*
X96789389Y-93393436D01*
X96868615Y-93202167D01*
X96983635Y-93030027D01*
X97130027Y-92883635D01*
X97302165Y-92768616D01*
X97342830Y-92751772D01*
X97493436Y-92689389D01*
X97696484Y-92649000D01*
X97903516Y-92649000D01*
X98106564Y-92689389D01*
G37*
G36*
X126248228Y-92181703D02*
G01*
X126403100Y-92245853D01*
X126542481Y-92338985D01*
X126661015Y-92457519D01*
X126754147Y-92596900D01*
X126818297Y-92751772D01*
X126851000Y-92916184D01*
X126851000Y-93083816D01*
X126818297Y-93248228D01*
X126754147Y-93403100D01*
X126661015Y-93542481D01*
X126542481Y-93661015D01*
X126403100Y-93754147D01*
X126248228Y-93818297D01*
X126083816Y-93851000D01*
X125916184Y-93851000D01*
X125751772Y-93818297D01*
X125596900Y-93754147D01*
X125457519Y-93661015D01*
X125338985Y-93542481D01*
X125245853Y-93403100D01*
X125181703Y-93248228D01*
X125149000Y-93083816D01*
X125149000Y-92916184D01*
X125181703Y-92751772D01*
X125245853Y-92596900D01*
X125338985Y-92457519D01*
X125457519Y-92338985D01*
X125596900Y-92245853D01*
X125751772Y-92181703D01*
X125916184Y-92149000D01*
X126083816Y-92149000D01*
X126248228Y-92181703D01*
G37*
G36*
X116088228Y-92181703D02*
G01*
X116243100Y-92245853D01*
X116382481Y-92338985D01*
X116501015Y-92457519D01*
X116594147Y-92596900D01*
X116658297Y-92751772D01*
X116691000Y-92916184D01*
X116691000Y-93083816D01*
X116658297Y-93248228D01*
X116594147Y-93403100D01*
X116501015Y-93542481D01*
X116382481Y-93661015D01*
X116243100Y-93754147D01*
X116088228Y-93818297D01*
X115923816Y-93851000D01*
X115756184Y-93851000D01*
X115591772Y-93818297D01*
X115436900Y-93754147D01*
X115297519Y-93661015D01*
X115178985Y-93542481D01*
X115085853Y-93403100D01*
X115021703Y-93248228D01*
X114989000Y-93083816D01*
X114989000Y-92916184D01*
X115021703Y-92751772D01*
X115085853Y-92596900D01*
X115178985Y-92457519D01*
X115297519Y-92338985D01*
X115436900Y-92245853D01*
X115591772Y-92181703D01*
X115756184Y-92149000D01*
X115923816Y-92149000D01*
X116088228Y-92181703D01*
G37*
G36*
X110868228Y-92181703D02*
G01*
X111023100Y-92245853D01*
X111162481Y-92338985D01*
X111281015Y-92457519D01*
X111374147Y-92596900D01*
X111438297Y-92751772D01*
X111471000Y-92916184D01*
X111471000Y-93083816D01*
X111438297Y-93248228D01*
X111374147Y-93403100D01*
X111281015Y-93542481D01*
X111162481Y-93661015D01*
X111023100Y-93754147D01*
X110868228Y-93818297D01*
X110703816Y-93851000D01*
X110536184Y-93851000D01*
X110371772Y-93818297D01*
X110216900Y-93754147D01*
X110077519Y-93661015D01*
X109958985Y-93542481D01*
X109865853Y-93403100D01*
X109801703Y-93248228D01*
X109769000Y-93083816D01*
X109769000Y-92916184D01*
X109801703Y-92751772D01*
X109865853Y-92596900D01*
X109958985Y-92457519D01*
X110077519Y-92338985D01*
X110216900Y-92245853D01*
X110371772Y-92181703D01*
X110536184Y-92149000D01*
X110703816Y-92149000D01*
X110868228Y-92181703D01*
G37*
G36*
X103851000Y-93851000D02*
G01*
X102149000Y-93851000D01*
X102149000Y-92149000D01*
X103851000Y-92149000D01*
X103851000Y-93851000D01*
G37*
G36*
X90302585Y-88378802D02*
G01*
X90452410Y-88408604D01*
X90734674Y-88525521D01*
X90988705Y-88695259D01*
X91204741Y-88911295D01*
X91374479Y-89165326D01*
X91491396Y-89447590D01*
X91551000Y-89747240D01*
X91551000Y-90052760D01*
X91491396Y-90352410D01*
X91374479Y-90634674D01*
X91204741Y-90888705D01*
X90988705Y-91104741D01*
X90734674Y-91274479D01*
X90452410Y-91391396D01*
X90302585Y-91421198D01*
X90152761Y-91451000D01*
X89847239Y-91451000D01*
X89697415Y-91421198D01*
X89547590Y-91391396D01*
X89265326Y-91274479D01*
X89011295Y-91104741D01*
X88795259Y-90888705D01*
X88625521Y-90634674D01*
X88508604Y-90352410D01*
X88449000Y-90052760D01*
X88449000Y-89747240D01*
X88508604Y-89447590D01*
X88625521Y-89165326D01*
X88795259Y-88911295D01*
X89011295Y-88695259D01*
X89265326Y-88525521D01*
X89547590Y-88408604D01*
X89697415Y-88378802D01*
X89847239Y-88349000D01*
X90152761Y-88349000D01*
X90302585Y-88378802D01*
G37*
G36*
X94237142Y-87218242D02*
G01*
X94385101Y-87279529D01*
X94518255Y-87368499D01*
X94631501Y-87481745D01*
X94720471Y-87614899D01*
X94781758Y-87762858D01*
X94813000Y-87919925D01*
X94813000Y-88080075D01*
X94781758Y-88237142D01*
X94720471Y-88385101D01*
X94631501Y-88518255D01*
X94518255Y-88631501D01*
X94385101Y-88720471D01*
X94237142Y-88781758D01*
X94080075Y-88813000D01*
X93919925Y-88813000D01*
X93762858Y-88781758D01*
X93614899Y-88720471D01*
X93481745Y-88631501D01*
X93368499Y-88518255D01*
X93279529Y-88385101D01*
X93218242Y-88237142D01*
X93187000Y-88080075D01*
X93187000Y-87919925D01*
X93218242Y-87762858D01*
X93279529Y-87614899D01*
X93368499Y-87481745D01*
X93481745Y-87368499D01*
X93614899Y-87279529D01*
X93762858Y-87218242D01*
X93919925Y-87187000D01*
X94080075Y-87187000D01*
X94237142Y-87218242D01*
G37*
G36*
X133737142Y-87218242D02*
G01*
X133885101Y-87279529D01*
X134018255Y-87368499D01*
X134131501Y-87481745D01*
X134220471Y-87614899D01*
X134281758Y-87762858D01*
X134313000Y-87919925D01*
X134313000Y-88080075D01*
X134281758Y-88237142D01*
X134220471Y-88385101D01*
X134131501Y-88518255D01*
X134018255Y-88631501D01*
X133885101Y-88720471D01*
X133737142Y-88781758D01*
X133580075Y-88813000D01*
X133419925Y-88813000D01*
X133262858Y-88781758D01*
X133114899Y-88720471D01*
X132981745Y-88631501D01*
X132868499Y-88518255D01*
X132779529Y-88385101D01*
X132718242Y-88237142D01*
X132687000Y-88080075D01*
X132687000Y-87919925D01*
X132718242Y-87762858D01*
X132779529Y-87614899D01*
X132868499Y-87481745D01*
X132981745Y-87368499D01*
X133114899Y-87279529D01*
X133262858Y-87218242D01*
X133419925Y-87187000D01*
X133580075Y-87187000D01*
X133737142Y-87218242D01*
G37*
G36*
X124748228Y-84181703D02*
G01*
X124903100Y-84245853D01*
X125042481Y-84338985D01*
X125161015Y-84457519D01*
X125254147Y-84596900D01*
X125318297Y-84751772D01*
X125351000Y-84916184D01*
X125351000Y-85083816D01*
X125318297Y-85248228D01*
X125254147Y-85403100D01*
X125161015Y-85542481D01*
X125042481Y-85661015D01*
X124903100Y-85754147D01*
X124748228Y-85818297D01*
X124583816Y-85851000D01*
X124416184Y-85851000D01*
X124251772Y-85818297D01*
X124096900Y-85754147D01*
X123957519Y-85661015D01*
X123838985Y-85542481D01*
X123745853Y-85403100D01*
X123681703Y-85248228D01*
X123649000Y-85083816D01*
X123649000Y-84916184D01*
X123681703Y-84751772D01*
X123745853Y-84596900D01*
X123838985Y-84457519D01*
X123957519Y-84338985D01*
X124096900Y-84245853D01*
X124251772Y-84181703D01*
X124416184Y-84149000D01*
X124583816Y-84149000D01*
X124748228Y-84181703D01*
G37*
G36*
X122851000Y-85851000D02*
G01*
X121149000Y-85851000D01*
X121149000Y-84149000D01*
X122851000Y-84149000D01*
X122851000Y-85851000D01*
G37*
G36*
X98219059Y-84277860D02*
G01*
X98355732Y-84334472D01*
X98478735Y-84416660D01*
X98583340Y-84521265D01*
X98665528Y-84644268D01*
X98722140Y-84780941D01*
X98751000Y-84926033D01*
X98751000Y-85073967D01*
X98722140Y-85219059D01*
X98665528Y-85355732D01*
X98583340Y-85478735D01*
X98478735Y-85583340D01*
X98355732Y-85665528D01*
X98355731Y-85665529D01*
X98355730Y-85665529D01*
X98219059Y-85722140D01*
X98073968Y-85751000D01*
X97926032Y-85751000D01*
X97780941Y-85722140D01*
X97644270Y-85665529D01*
X97644269Y-85665529D01*
X97644268Y-85665528D01*
X97521265Y-85583340D01*
X97416660Y-85478735D01*
X97334472Y-85355732D01*
X97277860Y-85219059D01*
X97249000Y-85073967D01*
X97249000Y-84926033D01*
X97277860Y-84780941D01*
X97334472Y-84644268D01*
X97416660Y-84521265D01*
X97521265Y-84416660D01*
X97644268Y-84334472D01*
X97780941Y-84277860D01*
X97926032Y-84249000D01*
X98073968Y-84249000D01*
X98219059Y-84277860D01*
G37*
G36*
X90599059Y-84277860D02*
G01*
X90735732Y-84334472D01*
X90858735Y-84416660D01*
X90963340Y-84521265D01*
X91045528Y-84644268D01*
X91102140Y-84780941D01*
X91131000Y-84926033D01*
X91131000Y-85073967D01*
X91102140Y-85219059D01*
X91045528Y-85355732D01*
X90963340Y-85478735D01*
X90858735Y-85583340D01*
X90735732Y-85665528D01*
X90735731Y-85665529D01*
X90735730Y-85665529D01*
X90599059Y-85722140D01*
X90453968Y-85751000D01*
X90306032Y-85751000D01*
X90160941Y-85722140D01*
X90024270Y-85665529D01*
X90024269Y-85665529D01*
X90024268Y-85665528D01*
X89901265Y-85583340D01*
X89796660Y-85478735D01*
X89714472Y-85355732D01*
X89657860Y-85219059D01*
X89629000Y-85073967D01*
X89629000Y-84926033D01*
X89657860Y-84780941D01*
X89714472Y-84644268D01*
X89796660Y-84521265D01*
X89901265Y-84416660D01*
X90024268Y-84334472D01*
X90160941Y-84277860D01*
X90306032Y-84249000D01*
X90453968Y-84249000D01*
X90599059Y-84277860D01*
G37*
G36*
X111219059Y-84277860D02*
G01*
X111355732Y-84334472D01*
X111478735Y-84416660D01*
X111583340Y-84521265D01*
X111665528Y-84644268D01*
X111722140Y-84780941D01*
X111751000Y-84926033D01*
X111751000Y-85073967D01*
X111722140Y-85219059D01*
X111665528Y-85355732D01*
X111583340Y-85478735D01*
X111478735Y-85583340D01*
X111355732Y-85665528D01*
X111355731Y-85665529D01*
X111355730Y-85665529D01*
X111219059Y-85722140D01*
X111073968Y-85751000D01*
X110926032Y-85751000D01*
X110780941Y-85722140D01*
X110644270Y-85665529D01*
X110644269Y-85665529D01*
X110644268Y-85665528D01*
X110521265Y-85583340D01*
X110416660Y-85478735D01*
X110334472Y-85355732D01*
X110277860Y-85219059D01*
X110249000Y-85073967D01*
X110249000Y-84926033D01*
X110277860Y-84780941D01*
X110334472Y-84644268D01*
X110416660Y-84521265D01*
X110521265Y-84416660D01*
X110644268Y-84334472D01*
X110780941Y-84277860D01*
X110926032Y-84249000D01*
X111073968Y-84249000D01*
X111219059Y-84277860D01*
G37*
G36*
X103599059Y-84277860D02*
G01*
X103735732Y-84334472D01*
X103858735Y-84416660D01*
X103963340Y-84521265D01*
X104045528Y-84644268D01*
X104102140Y-84780941D01*
X104131000Y-84926033D01*
X104131000Y-85073967D01*
X104102140Y-85219059D01*
X104045528Y-85355732D01*
X103963340Y-85478735D01*
X103858735Y-85583340D01*
X103735732Y-85665528D01*
X103735731Y-85665529D01*
X103735730Y-85665529D01*
X103599059Y-85722140D01*
X103453968Y-85751000D01*
X103306032Y-85751000D01*
X103160941Y-85722140D01*
X103024270Y-85665529D01*
X103024269Y-85665529D01*
X103024268Y-85665528D01*
X102901265Y-85583340D01*
X102796660Y-85478735D01*
X102714472Y-85355732D01*
X102657860Y-85219059D01*
X102629000Y-85073967D01*
X102629000Y-84926033D01*
X102657860Y-84780941D01*
X102714472Y-84644268D01*
X102796660Y-84521265D01*
X102901265Y-84416660D01*
X103024268Y-84334472D01*
X103160941Y-84277860D01*
X103306032Y-84249000D01*
X103453968Y-84249000D01*
X103599059Y-84277860D01*
G37*
M02*
