G04 #@! TF.GenerationSoftware,KiCad,Pcbnew,(5.1.5)-3*
G04 #@! TF.CreationDate,2021-07-03T20:54:04-04:00*
G04 #@! TF.ProjectId,LukeCopy,4c756b65-436f-4707-992e-6b696361645f,rev?*
G04 #@! TF.SameCoordinates,Original*
G04 #@! TF.FileFunction,Legend,Bot*
G04 #@! TF.FilePolarity,Positive*
%FSLAX46Y46*%
G04 Gerber Fmt 4.6, Leading zero omitted, Abs format (unit mm)*
G04 Created by KiCad (PCBNEW (5.1.5)-3) date 2021-07-03 20:54:04*
%MOMM*%
%LPD*%
G04 APERTURE LIST*
%ADD10C,0.120000*%
%ADD11C,0.150000*%
%ADD12C,3.102000*%
%ADD13R,3.102000X3.102000*%
%ADD14O,1.702000X1.702000*%
%ADD15R,1.702000X1.702000*%
%ADD16O,1.502000X1.502000*%
%ADD17C,1.502000*%
%ADD18C,1.702000*%
%ADD19C,2.102000*%
%ADD20C,0.100000*%
%ADD21R,3.602000X3.602000*%
%ADD22C,1.626000*%
G04 APERTURE END LIST*
D10*
X92250000Y-86000000D02*
X135250000Y-86000000D01*
X92250000Y-107000000D02*
X92250000Y-86000000D01*
X135250000Y-107000000D02*
X92250000Y-107000000D01*
X135250000Y-86000000D02*
X135250000Y-107000000D01*
D11*
X114988095Y-97452380D02*
X114988095Y-96452380D01*
X114750000Y-96452380D01*
X114607142Y-96500000D01*
X114511904Y-96595238D01*
X114464285Y-96690476D01*
X114416666Y-96880952D01*
X114416666Y-97023809D01*
X114464285Y-97214285D01*
X114511904Y-97309523D01*
X114607142Y-97404761D01*
X114750000Y-97452380D01*
X114988095Y-97452380D01*
X113416666Y-97357142D02*
X113464285Y-97404761D01*
X113607142Y-97452380D01*
X113702380Y-97452380D01*
X113845238Y-97404761D01*
X113940476Y-97309523D01*
X113988095Y-97214285D01*
X114035714Y-97023809D01*
X114035714Y-96880952D01*
X113988095Y-96690476D01*
X113940476Y-96595238D01*
X113845238Y-96500000D01*
X113702380Y-96452380D01*
X113607142Y-96452380D01*
X113464285Y-96500000D01*
X113416666Y-96547619D01*
X112464285Y-97452380D02*
X113035714Y-97452380D01*
X112750000Y-97452380D02*
X112750000Y-96452380D01*
X112845238Y-96595238D01*
X112940476Y-96690476D01*
X113035714Y-96738095D01*
X96119047Y-102452380D02*
X95928571Y-102452380D01*
X95833333Y-102500000D01*
X95738095Y-102595238D01*
X95690476Y-102785714D01*
X95690476Y-103119047D01*
X95738095Y-103309523D01*
X95833333Y-103404761D01*
X95928571Y-103452380D01*
X96119047Y-103452380D01*
X96214285Y-103404761D01*
X96309523Y-103309523D01*
X96357142Y-103119047D01*
X96357142Y-102785714D01*
X96309523Y-102595238D01*
X96214285Y-102500000D01*
X96119047Y-102452380D01*
X95261904Y-102452380D02*
X95261904Y-103261904D01*
X95214285Y-103357142D01*
X95166666Y-103404761D01*
X95071428Y-103452380D01*
X94880952Y-103452380D01*
X94785714Y-103404761D01*
X94738095Y-103357142D01*
X94690476Y-103261904D01*
X94690476Y-102452380D01*
X94357142Y-102452380D02*
X93785714Y-102452380D01*
X94071428Y-103452380D02*
X94071428Y-102452380D01*
X93452380Y-103071428D02*
X92690476Y-103071428D01*
X96119047Y-89702380D02*
X95928571Y-89702380D01*
X95833333Y-89750000D01*
X95738095Y-89845238D01*
X95690476Y-90035714D01*
X95690476Y-90369047D01*
X95738095Y-90559523D01*
X95833333Y-90654761D01*
X95928571Y-90702380D01*
X96119047Y-90702380D01*
X96214285Y-90654761D01*
X96309523Y-90559523D01*
X96357142Y-90369047D01*
X96357142Y-90035714D01*
X96309523Y-89845238D01*
X96214285Y-89750000D01*
X96119047Y-89702380D01*
X95261904Y-89702380D02*
X95261904Y-90511904D01*
X95214285Y-90607142D01*
X95166666Y-90654761D01*
X95071428Y-90702380D01*
X94880952Y-90702380D01*
X94785714Y-90654761D01*
X94738095Y-90607142D01*
X94690476Y-90511904D01*
X94690476Y-89702380D01*
X94357142Y-89702380D02*
X93785714Y-89702380D01*
X94071428Y-90702380D02*
X94071428Y-89702380D01*
X93452380Y-90321428D02*
X92690476Y-90321428D01*
X93071428Y-90702380D02*
X93071428Y-89940476D01*
X134642857Y-103452380D02*
X134642857Y-102452380D01*
X134166666Y-103452380D02*
X134166666Y-102452380D01*
X133595238Y-103452380D01*
X133595238Y-102452380D01*
X133119047Y-103071428D02*
X132357142Y-103071428D01*
X134392857Y-90452380D02*
X134392857Y-89452380D01*
X133916666Y-90452380D02*
X133916666Y-89452380D01*
X133345238Y-90452380D01*
X133345238Y-89452380D01*
X132869047Y-90071428D02*
X132107142Y-90071428D01*
X132488095Y-90452380D02*
X132488095Y-89690476D01*
X120309523Y-85452380D02*
X120309523Y-84452380D01*
X120071428Y-84452380D01*
X119928571Y-84500000D01*
X119833333Y-84595238D01*
X119785714Y-84690476D01*
X119738095Y-84880952D01*
X119738095Y-85023809D01*
X119785714Y-85214285D01*
X119833333Y-85309523D01*
X119928571Y-85404761D01*
X120071428Y-85452380D01*
X120309523Y-85452380D01*
X118738095Y-85357142D02*
X118785714Y-85404761D01*
X118928571Y-85452380D01*
X119023809Y-85452380D01*
X119166666Y-85404761D01*
X119261904Y-85309523D01*
X119309523Y-85214285D01*
X119357142Y-85023809D01*
X119357142Y-84880952D01*
X119309523Y-84690476D01*
X119261904Y-84595238D01*
X119166666Y-84500000D01*
X119023809Y-84452380D01*
X118928571Y-84452380D01*
X118785714Y-84500000D01*
X118738095Y-84547619D01*
X118309523Y-85071428D02*
X117547619Y-85071428D01*
X117071428Y-85452380D02*
X117071428Y-84452380D01*
X116833333Y-84452380D01*
X116690476Y-84500000D01*
X116595238Y-84595238D01*
X116547619Y-84690476D01*
X116500000Y-84880952D01*
X116500000Y-85023809D01*
X116547619Y-85214285D01*
X116595238Y-85309523D01*
X116690476Y-85404761D01*
X116833333Y-85452380D01*
X117071428Y-85452380D01*
X115500000Y-85357142D02*
X115547619Y-85404761D01*
X115690476Y-85452380D01*
X115785714Y-85452380D01*
X115928571Y-85404761D01*
X116023809Y-85309523D01*
X116071428Y-85214285D01*
X116119047Y-85023809D01*
X116119047Y-84880952D01*
X116071428Y-84690476D01*
X116023809Y-84595238D01*
X115928571Y-84500000D01*
X115785714Y-84452380D01*
X115690476Y-84452380D01*
X115547619Y-84500000D01*
X115500000Y-84547619D01*
X113738095Y-85357142D02*
X113785714Y-85404761D01*
X113928571Y-85452380D01*
X114023809Y-85452380D01*
X114166666Y-85404761D01*
X114261904Y-85309523D01*
X114309523Y-85214285D01*
X114357142Y-85023809D01*
X114357142Y-84880952D01*
X114309523Y-84690476D01*
X114261904Y-84595238D01*
X114166666Y-84500000D01*
X114023809Y-84452380D01*
X113928571Y-84452380D01*
X113785714Y-84500000D01*
X113738095Y-84547619D01*
X113166666Y-85452380D02*
X113261904Y-85404761D01*
X113309523Y-85357142D01*
X113357142Y-85261904D01*
X113357142Y-84976190D01*
X113309523Y-84880952D01*
X113261904Y-84833333D01*
X113166666Y-84785714D01*
X113023809Y-84785714D01*
X112928571Y-84833333D01*
X112880952Y-84880952D01*
X112833333Y-84976190D01*
X112833333Y-85261904D01*
X112880952Y-85357142D01*
X112928571Y-85404761D01*
X113023809Y-85452380D01*
X113166666Y-85452380D01*
X112404761Y-84785714D02*
X112404761Y-85452380D01*
X112404761Y-84880952D02*
X112357142Y-84833333D01*
X112261904Y-84785714D01*
X112119047Y-84785714D01*
X112023809Y-84833333D01*
X111976190Y-84928571D01*
X111976190Y-85452380D01*
X111595238Y-84785714D02*
X111357142Y-85452380D01*
X111119047Y-84785714D01*
X110357142Y-85404761D02*
X110452380Y-85452380D01*
X110642857Y-85452380D01*
X110738095Y-85404761D01*
X110785714Y-85309523D01*
X110785714Y-84928571D01*
X110738095Y-84833333D01*
X110642857Y-84785714D01*
X110452380Y-84785714D01*
X110357142Y-84833333D01*
X110309523Y-84928571D01*
X110309523Y-85023809D01*
X110785714Y-85119047D01*
X109880952Y-85452380D02*
X109880952Y-84785714D01*
X109880952Y-84976190D02*
X109833333Y-84880952D01*
X109785714Y-84833333D01*
X109690476Y-84785714D01*
X109595238Y-84785714D01*
X109404761Y-84785714D02*
X109023809Y-84785714D01*
X109261904Y-84452380D02*
X109261904Y-85309523D01*
X109214285Y-85404761D01*
X109119047Y-85452380D01*
X109023809Y-85452380D01*
X108309523Y-85404761D02*
X108404761Y-85452380D01*
X108595238Y-85452380D01*
X108690476Y-85404761D01*
X108738095Y-85309523D01*
X108738095Y-84928571D01*
X108690476Y-84833333D01*
X108595238Y-84785714D01*
X108404761Y-84785714D01*
X108309523Y-84833333D01*
X108261904Y-84928571D01*
X108261904Y-85023809D01*
X108738095Y-85119047D01*
X107833333Y-85452380D02*
X107833333Y-84785714D01*
X107833333Y-84976190D02*
X107785714Y-84880952D01*
X107738095Y-84833333D01*
X107642857Y-84785714D01*
X107547619Y-84785714D01*
%LPC*%
D12*
X130000000Y-112240000D03*
X130000000Y-97000000D03*
X124160000Y-113000000D03*
X119080000Y-113000000D03*
D13*
X114000000Y-113000000D03*
D12*
X108080000Y-113000000D03*
D13*
X103000000Y-113000000D03*
D14*
X110620000Y-93000000D03*
X103000000Y-100620000D03*
X110620000Y-95540000D03*
X103000000Y-98080000D03*
X110620000Y-98080000D03*
X103000000Y-95540000D03*
X110620000Y-100620000D03*
D15*
X103000000Y-93000000D03*
D16*
X103380000Y-85000000D03*
D17*
X111000000Y-85000000D03*
D14*
X115840000Y-93000000D03*
D18*
X126000000Y-93000000D03*
D16*
X90380000Y-85000000D03*
D17*
X98000000Y-85000000D03*
D19*
X97800000Y-93700000D03*
D12*
X90000000Y-89900000D03*
X90000000Y-97500000D03*
D20*
G36*
X92988764Y-111903336D02*
G01*
X93076179Y-111916303D01*
X93161901Y-111937775D01*
X93245106Y-111967546D01*
X93324993Y-112005330D01*
X93400791Y-112050762D01*
X93471771Y-112103404D01*
X93537250Y-112162750D01*
X93596596Y-112228229D01*
X93649238Y-112299209D01*
X93694670Y-112375007D01*
X93732454Y-112454894D01*
X93762225Y-112538099D01*
X93783697Y-112623821D01*
X93796664Y-112711236D01*
X93801000Y-112799500D01*
X93801000Y-114600500D01*
X93796664Y-114688764D01*
X93783697Y-114776179D01*
X93762225Y-114861901D01*
X93732454Y-114945106D01*
X93694670Y-115024993D01*
X93649238Y-115100791D01*
X93596596Y-115171771D01*
X93537250Y-115237250D01*
X93471771Y-115296596D01*
X93400791Y-115349238D01*
X93324993Y-115394670D01*
X93245106Y-115432454D01*
X93161901Y-115462225D01*
X93076179Y-115483697D01*
X92988764Y-115496664D01*
X92900500Y-115501000D01*
X91099500Y-115501000D01*
X91011236Y-115496664D01*
X90923821Y-115483697D01*
X90838099Y-115462225D01*
X90754894Y-115432454D01*
X90675007Y-115394670D01*
X90599209Y-115349238D01*
X90528229Y-115296596D01*
X90462750Y-115237250D01*
X90403404Y-115171771D01*
X90350762Y-115100791D01*
X90305330Y-115024993D01*
X90267546Y-114945106D01*
X90237775Y-114861901D01*
X90216303Y-114776179D01*
X90203336Y-114688764D01*
X90199000Y-114600500D01*
X90199000Y-112799500D01*
X90203336Y-112711236D01*
X90216303Y-112623821D01*
X90237775Y-112538099D01*
X90267546Y-112454894D01*
X90305330Y-112375007D01*
X90350762Y-112299209D01*
X90403404Y-112228229D01*
X90462750Y-112162750D01*
X90528229Y-112103404D01*
X90599209Y-112050762D01*
X90675007Y-112005330D01*
X90754894Y-111967546D01*
X90838099Y-111937775D01*
X90923821Y-111916303D01*
X91011236Y-111903336D01*
X91099500Y-111899000D01*
X92900500Y-111899000D01*
X92988764Y-111903336D01*
G37*
G36*
X89851512Y-107202734D02*
G01*
X89926793Y-107213901D01*
X90000616Y-107232393D01*
X90072271Y-107258031D01*
X90141068Y-107290570D01*
X90206345Y-107329695D01*
X90267472Y-107375030D01*
X90323861Y-107426139D01*
X90374970Y-107482528D01*
X90420305Y-107543655D01*
X90459430Y-107608932D01*
X90491969Y-107677729D01*
X90517607Y-107749384D01*
X90536099Y-107823207D01*
X90547266Y-107898488D01*
X90551000Y-107974500D01*
X90551000Y-110025500D01*
X90547266Y-110101512D01*
X90536099Y-110176793D01*
X90517607Y-110250616D01*
X90491969Y-110322271D01*
X90459430Y-110391068D01*
X90420305Y-110456345D01*
X90374970Y-110517472D01*
X90323861Y-110573861D01*
X90267472Y-110624970D01*
X90206345Y-110670305D01*
X90141068Y-110709430D01*
X90072271Y-110741969D01*
X90000616Y-110767607D01*
X89926793Y-110786099D01*
X89851512Y-110797266D01*
X89775500Y-110801000D01*
X88224500Y-110801000D01*
X88148488Y-110797266D01*
X88073207Y-110786099D01*
X87999384Y-110767607D01*
X87927729Y-110741969D01*
X87858932Y-110709430D01*
X87793655Y-110670305D01*
X87732528Y-110624970D01*
X87676139Y-110573861D01*
X87625030Y-110517472D01*
X87579695Y-110456345D01*
X87540570Y-110391068D01*
X87508031Y-110322271D01*
X87482393Y-110250616D01*
X87463901Y-110176793D01*
X87452734Y-110101512D01*
X87449000Y-110025500D01*
X87449000Y-107974500D01*
X87452734Y-107898488D01*
X87463901Y-107823207D01*
X87482393Y-107749384D01*
X87508031Y-107677729D01*
X87540570Y-107608932D01*
X87579695Y-107543655D01*
X87625030Y-107482528D01*
X87676139Y-107426139D01*
X87732528Y-107375030D01*
X87793655Y-107329695D01*
X87858932Y-107290570D01*
X87927729Y-107258031D01*
X87999384Y-107232393D01*
X88073207Y-107213901D01*
X88148488Y-107202734D01*
X88224500Y-107199000D01*
X89775500Y-107199000D01*
X89851512Y-107202734D01*
G37*
D21*
X95000000Y-109000000D03*
D22*
X133500000Y-88000000D03*
X133500000Y-105000000D03*
X94000000Y-105000000D03*
X94000000Y-88000000D03*
D18*
X122500000Y-100000000D03*
X117500000Y-100000000D03*
X124500000Y-85000000D03*
D15*
X122000000Y-85000000D03*
M02*
