G04 #@! TF.GenerationSoftware,KiCad,Pcbnew,(5.1.5)-3*
G04 #@! TF.CreationDate,2021-07-03T20:54:04-04:00*
G04 #@! TF.ProjectId,LukeCopy,4c756b65-436f-4707-992e-6b696361645f,rev?*
G04 #@! TF.SameCoordinates,Original*
G04 #@! TF.FileFunction,Legend,Top*
G04 #@! TF.FilePolarity,Positive*
%FSLAX46Y46*%
G04 Gerber Fmt 4.6, Leading zero omitted, Abs format (unit mm)*
G04 Created by KiCad (PCBNEW (5.1.5)-3) date 2021-07-03 20:54:04*
%MOMM*%
%LPD*%
G04 APERTURE LIST*
%ADD10C,0.150000*%
%ADD11C,0.200000*%
%ADD12C,0.010000*%
%ADD13C,0.120000*%
%ADD14C,3.102000*%
%ADD15R,3.102000X3.102000*%
%ADD16O,1.702000X1.702000*%
%ADD17R,1.702000X1.702000*%
%ADD18O,1.502000X1.502000*%
%ADD19C,1.502000*%
%ADD20C,1.702000*%
%ADD21C,2.102000*%
%ADD22C,0.100000*%
%ADD23R,3.602000X3.602000*%
%ADD24C,1.626000*%
G04 APERTURE END LIST*
D10*
X116404761Y-106952380D02*
X116404761Y-105952380D01*
X116738095Y-106666666D01*
X117071428Y-105952380D01*
X117071428Y-106952380D01*
X117738095Y-105952380D02*
X117928571Y-105952380D01*
X118023809Y-106000000D01*
X118119047Y-106095238D01*
X118166666Y-106285714D01*
X118166666Y-106619047D01*
X118119047Y-106809523D01*
X118023809Y-106904761D01*
X117928571Y-106952380D01*
X117738095Y-106952380D01*
X117642857Y-106904761D01*
X117547619Y-106809523D01*
X117500000Y-106619047D01*
X117500000Y-106285714D01*
X117547619Y-106095238D01*
X117642857Y-106000000D01*
X117738095Y-105952380D01*
X118547619Y-106904761D02*
X118690476Y-106952380D01*
X118928571Y-106952380D01*
X119023809Y-106904761D01*
X119071428Y-106857142D01*
X119119047Y-106761904D01*
X119119047Y-106666666D01*
X119071428Y-106571428D01*
X119023809Y-106523809D01*
X118928571Y-106476190D01*
X118738095Y-106428571D01*
X118642857Y-106380952D01*
X118595238Y-106333333D01*
X118547619Y-106238095D01*
X118547619Y-106142857D01*
X118595238Y-106047619D01*
X118642857Y-106000000D01*
X118738095Y-105952380D01*
X118976190Y-105952380D01*
X119119047Y-106000000D01*
X119880952Y-106428571D02*
X119547619Y-106428571D01*
X119547619Y-106952380D02*
X119547619Y-105952380D01*
X120023809Y-105952380D01*
X120404761Y-106428571D02*
X120738095Y-106428571D01*
X120880952Y-106952380D02*
X120404761Y-106952380D01*
X120404761Y-105952380D01*
X120880952Y-105952380D01*
X121166666Y-105952380D02*
X121738095Y-105952380D01*
X121452380Y-106952380D02*
X121452380Y-105952380D01*
X104976190Y-106952380D02*
X104500000Y-106952380D01*
X104500000Y-105952380D01*
X105309523Y-106428571D02*
X105642857Y-106428571D01*
X105785714Y-106952380D02*
X105309523Y-106952380D01*
X105309523Y-105952380D01*
X105785714Y-105952380D01*
X106214285Y-106952380D02*
X106214285Y-105952380D01*
X106452380Y-105952380D01*
X106595238Y-106000000D01*
X106690476Y-106095238D01*
X106738095Y-106190476D01*
X106785714Y-106380952D01*
X106785714Y-106523809D01*
X106738095Y-106714285D01*
X106690476Y-106809523D01*
X106595238Y-106904761D01*
X106452380Y-106952380D01*
X106214285Y-106952380D01*
D11*
X138602380Y-104119047D02*
X138602380Y-104595238D01*
X137602380Y-104595238D01*
X138078571Y-103785714D02*
X138078571Y-103452380D01*
X138602380Y-103309523D02*
X138602380Y-103785714D01*
X137602380Y-103785714D01*
X137602380Y-103309523D01*
X138602380Y-102880952D02*
X137602380Y-102880952D01*
X137602380Y-102642857D01*
X137650000Y-102500000D01*
X137745238Y-102404761D01*
X137840476Y-102357142D01*
X138030952Y-102309523D01*
X138173809Y-102309523D01*
X138364285Y-102357142D01*
X138459523Y-102404761D01*
X138554761Y-102500000D01*
X138602380Y-102642857D01*
X138602380Y-102880952D01*
X138602380Y-101119047D02*
X137602380Y-101119047D01*
X137602380Y-100880952D01*
X137650000Y-100738095D01*
X137745238Y-100642857D01*
X137840476Y-100595238D01*
X138030952Y-100547619D01*
X138173809Y-100547619D01*
X138364285Y-100595238D01*
X138459523Y-100642857D01*
X138554761Y-100738095D01*
X138602380Y-100880952D01*
X138602380Y-101119047D01*
X138602380Y-99547619D02*
X138126190Y-99880952D01*
X138602380Y-100119047D02*
X137602380Y-100119047D01*
X137602380Y-99738095D01*
X137650000Y-99642857D01*
X137697619Y-99595238D01*
X137792857Y-99547619D01*
X137935714Y-99547619D01*
X138030952Y-99595238D01*
X138078571Y-99642857D01*
X138126190Y-99738095D01*
X138126190Y-100119047D01*
X138602380Y-99119047D02*
X137602380Y-99119047D01*
X137602380Y-98785714D02*
X138602380Y-98452380D01*
X137602380Y-98119047D01*
X138078571Y-97785714D02*
X138078571Y-97452380D01*
X138602380Y-97309523D02*
X138602380Y-97785714D01*
X137602380Y-97785714D01*
X137602380Y-97309523D01*
X138602380Y-96309523D02*
X138126190Y-96642857D01*
X138602380Y-96880952D02*
X137602380Y-96880952D01*
X137602380Y-96500000D01*
X137650000Y-96404761D01*
X137697619Y-96357142D01*
X137792857Y-96309523D01*
X137935714Y-96309523D01*
X138030952Y-96357142D01*
X138078571Y-96404761D01*
X138126190Y-96500000D01*
X138126190Y-96880952D01*
X138221428Y-95119047D02*
X138221428Y-94357142D01*
X137602380Y-92833333D02*
X138316666Y-92833333D01*
X138459523Y-92880952D01*
X138554761Y-92976190D01*
X138602380Y-93119047D01*
X138602380Y-93214285D01*
X137602380Y-92357142D02*
X138411904Y-92357142D01*
X138507142Y-92309523D01*
X138554761Y-92261904D01*
X138602380Y-92166666D01*
X138602380Y-91976190D01*
X138554761Y-91880952D01*
X138507142Y-91833333D01*
X138411904Y-91785714D01*
X137602380Y-91785714D01*
X138602380Y-90833333D02*
X138602380Y-91309523D01*
X137602380Y-91309523D01*
X137697619Y-89785714D02*
X137650000Y-89738095D01*
X137602380Y-89642857D01*
X137602380Y-89404761D01*
X137650000Y-89309523D01*
X137697619Y-89261904D01*
X137792857Y-89214285D01*
X137888095Y-89214285D01*
X138030952Y-89261904D01*
X138602380Y-89833333D01*
X138602380Y-89214285D01*
X137602380Y-88595238D02*
X137602380Y-88500000D01*
X137650000Y-88404761D01*
X137697619Y-88357142D01*
X137792857Y-88309523D01*
X137983333Y-88261904D01*
X138221428Y-88261904D01*
X138411904Y-88309523D01*
X138507142Y-88357142D01*
X138554761Y-88404761D01*
X138602380Y-88500000D01*
X138602380Y-88595238D01*
X138554761Y-88690476D01*
X138507142Y-88738095D01*
X138411904Y-88785714D01*
X138221428Y-88833333D01*
X137983333Y-88833333D01*
X137792857Y-88785714D01*
X137697619Y-88738095D01*
X137650000Y-88690476D01*
X137602380Y-88595238D01*
X137697619Y-87880952D02*
X137650000Y-87833333D01*
X137602380Y-87738095D01*
X137602380Y-87500000D01*
X137650000Y-87404761D01*
X137697619Y-87357142D01*
X137792857Y-87309523D01*
X137888095Y-87309523D01*
X138030952Y-87357142D01*
X138602380Y-87928571D01*
X138602380Y-87309523D01*
X138602380Y-86357142D02*
X138602380Y-86928571D01*
X138602380Y-86642857D02*
X137602380Y-86642857D01*
X137745238Y-86738095D01*
X137840476Y-86833333D01*
X137888095Y-86928571D01*
X139778571Y-103714285D02*
X139826190Y-103571428D01*
X139873809Y-103523809D01*
X139969047Y-103476190D01*
X140111904Y-103476190D01*
X140207142Y-103523809D01*
X140254761Y-103571428D01*
X140302380Y-103666666D01*
X140302380Y-104047619D01*
X139302380Y-104047619D01*
X139302380Y-103714285D01*
X139350000Y-103619047D01*
X139397619Y-103571428D01*
X139492857Y-103523809D01*
X139588095Y-103523809D01*
X139683333Y-103571428D01*
X139730952Y-103619047D01*
X139778571Y-103714285D01*
X139778571Y-104047619D01*
X139826190Y-102857142D02*
X140302380Y-102857142D01*
X139302380Y-103190476D02*
X139826190Y-102857142D01*
X139302380Y-102523809D01*
X139778571Y-101095238D02*
X139778571Y-101428571D01*
X140302380Y-101428571D02*
X139302380Y-101428571D01*
X139302380Y-100952380D01*
X139778571Y-100571428D02*
X139778571Y-100238095D01*
X140302380Y-100095238D02*
X140302380Y-100571428D01*
X139302380Y-100571428D01*
X139302380Y-100095238D01*
X140302380Y-99095238D02*
X139826190Y-99428571D01*
X140302380Y-99666666D02*
X139302380Y-99666666D01*
X139302380Y-99285714D01*
X139350000Y-99190476D01*
X139397619Y-99142857D01*
X139492857Y-99095238D01*
X139635714Y-99095238D01*
X139730952Y-99142857D01*
X139778571Y-99190476D01*
X139826190Y-99285714D01*
X139826190Y-99666666D01*
X140302380Y-98666666D02*
X139302380Y-98666666D01*
X140302380Y-98095238D01*
X139302380Y-98095238D01*
X140016666Y-97666666D02*
X140016666Y-97190476D01*
X140302380Y-97761904D02*
X139302380Y-97428571D01*
X140302380Y-97095238D01*
X140302380Y-96761904D02*
X139302380Y-96761904D01*
X140302380Y-96190476D01*
X139302380Y-96190476D01*
X140302380Y-95714285D02*
X139302380Y-95714285D01*
X139302380Y-95476190D01*
X139350000Y-95333333D01*
X139445238Y-95238095D01*
X139540476Y-95190476D01*
X139730952Y-95142857D01*
X139873809Y-95142857D01*
X140064285Y-95190476D01*
X140159523Y-95238095D01*
X140254761Y-95333333D01*
X140302380Y-95476190D01*
X140302380Y-95714285D01*
X139302380Y-94523809D02*
X139302380Y-94333333D01*
X139350000Y-94238095D01*
X139445238Y-94142857D01*
X139635714Y-94095238D01*
X139969047Y-94095238D01*
X140159523Y-94142857D01*
X140254761Y-94238095D01*
X140302380Y-94333333D01*
X140302380Y-94523809D01*
X140254761Y-94619047D01*
X140159523Y-94714285D01*
X139969047Y-94761904D01*
X139635714Y-94761904D01*
X139445238Y-94714285D01*
X139350000Y-94619047D01*
X139302380Y-94523809D01*
X139302380Y-93000000D02*
X139302380Y-92333333D01*
X140302380Y-93000000D01*
X140302380Y-92333333D01*
X140302380Y-91952380D02*
X139302380Y-91952380D01*
X139350000Y-90952380D02*
X139302380Y-91047619D01*
X139302380Y-91190476D01*
X139350000Y-91333333D01*
X139445238Y-91428571D01*
X139540476Y-91476190D01*
X139730952Y-91523809D01*
X139873809Y-91523809D01*
X140064285Y-91476190D01*
X140159523Y-91428571D01*
X140254761Y-91333333D01*
X140302380Y-91190476D01*
X140302380Y-91095238D01*
X140254761Y-90952380D01*
X140207142Y-90904761D01*
X139873809Y-90904761D01*
X139873809Y-91095238D01*
X139302380Y-90476190D02*
X140111904Y-90476190D01*
X140207142Y-90428571D01*
X140254761Y-90380952D01*
X140302380Y-90285714D01*
X140302380Y-90095238D01*
X140254761Y-90000000D01*
X140207142Y-89952380D01*
X140111904Y-89904761D01*
X139302380Y-89904761D01*
X140302380Y-89428571D02*
X139302380Y-89428571D01*
X140302380Y-88857142D01*
X139302380Y-88857142D01*
X139302380Y-88190476D02*
X139302380Y-88000000D01*
X139350000Y-87904761D01*
X139445238Y-87809523D01*
X139635714Y-87761904D01*
X139969047Y-87761904D01*
X140159523Y-87809523D01*
X140254761Y-87904761D01*
X140302380Y-88000000D01*
X140302380Y-88190476D01*
X140254761Y-88285714D01*
X140159523Y-88380952D01*
X139969047Y-88428571D01*
X139635714Y-88428571D01*
X139445238Y-88380952D01*
X139350000Y-88285714D01*
X139302380Y-88190476D01*
X139302380Y-87476190D02*
X140302380Y-87142857D01*
X139302380Y-86809523D01*
D10*
X107619047Y-108071428D02*
X108380952Y-108071428D01*
X102619047Y-108071428D02*
X103380952Y-108071428D01*
X103000000Y-108452380D02*
X103000000Y-107690476D01*
X123714285Y-108404761D02*
X123857142Y-108452380D01*
X124095238Y-108452380D01*
X124190476Y-108404761D01*
X124238095Y-108357142D01*
X124285714Y-108261904D01*
X124285714Y-108166666D01*
X124238095Y-108071428D01*
X124190476Y-108023809D01*
X124095238Y-107976190D01*
X123904761Y-107928571D01*
X123809523Y-107880952D01*
X123761904Y-107833333D01*
X123714285Y-107738095D01*
X123714285Y-107642857D01*
X123761904Y-107547619D01*
X123809523Y-107500000D01*
X123904761Y-107452380D01*
X124142857Y-107452380D01*
X124285714Y-107500000D01*
X118738095Y-108452380D02*
X118738095Y-107452380D01*
X118976190Y-107452380D01*
X119119047Y-107500000D01*
X119214285Y-107595238D01*
X119261904Y-107690476D01*
X119309523Y-107880952D01*
X119309523Y-108023809D01*
X119261904Y-108214285D01*
X119214285Y-108309523D01*
X119119047Y-108404761D01*
X118976190Y-108452380D01*
X118738095Y-108452380D01*
X114261904Y-107500000D02*
X114166666Y-107452380D01*
X114023809Y-107452380D01*
X113880952Y-107500000D01*
X113785714Y-107595238D01*
X113738095Y-107690476D01*
X113690476Y-107880952D01*
X113690476Y-108023809D01*
X113738095Y-108214285D01*
X113785714Y-108309523D01*
X113880952Y-108404761D01*
X114023809Y-108452380D01*
X114119047Y-108452380D01*
X114261904Y-108404761D01*
X114309523Y-108357142D01*
X114309523Y-108023809D01*
X114119047Y-108023809D01*
D12*
G36*
X139440734Y-107466155D02*
G01*
X139991067Y-108136363D01*
X140016214Y-107209056D01*
X140023384Y-106965362D01*
X140030957Y-106744438D01*
X140038545Y-106555151D01*
X140045755Y-106406368D01*
X140052198Y-106306957D01*
X140057482Y-106265785D01*
X140057792Y-106265319D01*
X140096024Y-106266900D01*
X140175546Y-106289056D01*
X140232580Y-106309365D01*
X140427037Y-106415649D01*
X140605044Y-106573623D01*
X140746474Y-106763834D01*
X140837733Y-106919066D01*
X140839193Y-107765733D01*
X140839231Y-108013891D01*
X140838644Y-108313448D01*
X140837501Y-108648077D01*
X140835873Y-109001447D01*
X140833829Y-109357228D01*
X140831440Y-109699092D01*
X140830304Y-109840067D01*
X140827162Y-110120848D01*
X140822779Y-110379047D01*
X140817397Y-110607133D01*
X140811260Y-110797575D01*
X140804609Y-110942843D01*
X140797688Y-111035406D01*
X140790769Y-111067733D01*
X140717826Y-111052559D01*
X140612667Y-111014434D01*
X140501633Y-110964453D01*
X140411060Y-110913713D01*
X140390881Y-110899270D01*
X140330928Y-110841369D01*
X140246043Y-110745953D01*
X140151246Y-110630200D01*
X140116377Y-110585279D01*
X140041324Y-110487559D01*
X139933235Y-110347562D01*
X139800733Y-110176417D01*
X139652441Y-109985256D01*
X139496979Y-109785207D01*
X139409559Y-109672876D01*
X138890400Y-109006153D01*
X138890400Y-106795948D01*
X139440734Y-107466155D01*
G37*
X139440734Y-107466155D02*
X139991067Y-108136363D01*
X140016214Y-107209056D01*
X140023384Y-106965362D01*
X140030957Y-106744438D01*
X140038545Y-106555151D01*
X140045755Y-106406368D01*
X140052198Y-106306957D01*
X140057482Y-106265785D01*
X140057792Y-106265319D01*
X140096024Y-106266900D01*
X140175546Y-106289056D01*
X140232580Y-106309365D01*
X140427037Y-106415649D01*
X140605044Y-106573623D01*
X140746474Y-106763834D01*
X140837733Y-106919066D01*
X140839193Y-107765733D01*
X140839231Y-108013891D01*
X140838644Y-108313448D01*
X140837501Y-108648077D01*
X140835873Y-109001447D01*
X140833829Y-109357228D01*
X140831440Y-109699092D01*
X140830304Y-109840067D01*
X140827162Y-110120848D01*
X140822779Y-110379047D01*
X140817397Y-110607133D01*
X140811260Y-110797575D01*
X140804609Y-110942843D01*
X140797688Y-111035406D01*
X140790769Y-111067733D01*
X140717826Y-111052559D01*
X140612667Y-111014434D01*
X140501633Y-110964453D01*
X140411060Y-110913713D01*
X140390881Y-110899270D01*
X140330928Y-110841369D01*
X140246043Y-110745953D01*
X140151246Y-110630200D01*
X140116377Y-110585279D01*
X140041324Y-110487559D01*
X139933235Y-110347562D01*
X139800733Y-110176417D01*
X139652441Y-109985256D01*
X139496979Y-109785207D01*
X139409559Y-109672876D01*
X138890400Y-109006153D01*
X138890400Y-106795948D01*
X139440734Y-107466155D01*
G36*
X138949328Y-112476499D02*
G01*
X139064159Y-112517062D01*
X139177665Y-112590109D01*
X139306741Y-112707007D01*
X139335792Y-112736526D01*
X139435047Y-112844328D01*
X139508338Y-112942535D01*
X139560037Y-113044814D01*
X139594515Y-113164827D01*
X139616142Y-113316240D01*
X139629291Y-113512718D01*
X139635431Y-113673227D01*
X139652400Y-114195922D01*
X139872534Y-114250834D01*
X140145116Y-114342404D01*
X140366556Y-114471502D01*
X140546189Y-114645156D01*
X140691944Y-114867740D01*
X140721375Y-114928979D01*
X140742770Y-114993164D01*
X140757745Y-115072914D01*
X140767915Y-115180851D01*
X140774895Y-115329592D01*
X140780301Y-115531759D01*
X140780992Y-115563533D01*
X140784274Y-115747871D01*
X140785828Y-115905819D01*
X140785644Y-116026166D01*
X140783715Y-116097701D01*
X140781381Y-116112740D01*
X140747133Y-116103711D01*
X140655879Y-116078734D01*
X140515848Y-116040087D01*
X140335269Y-115990048D01*
X140122371Y-115930894D01*
X139885383Y-115864903D01*
X139821734Y-115847156D01*
X138873467Y-115582699D01*
X138864661Y-114018752D01*
X138855856Y-112454806D01*
X138949328Y-112476499D01*
G37*
X138949328Y-112476499D02*
X139064159Y-112517062D01*
X139177665Y-112590109D01*
X139306741Y-112707007D01*
X139335792Y-112736526D01*
X139435047Y-112844328D01*
X139508338Y-112942535D01*
X139560037Y-113044814D01*
X139594515Y-113164827D01*
X139616142Y-113316240D01*
X139629291Y-113512718D01*
X139635431Y-113673227D01*
X139652400Y-114195922D01*
X139872534Y-114250834D01*
X140145116Y-114342404D01*
X140366556Y-114471502D01*
X140546189Y-114645156D01*
X140691944Y-114867740D01*
X140721375Y-114928979D01*
X140742770Y-114993164D01*
X140757745Y-115072914D01*
X140767915Y-115180851D01*
X140774895Y-115329592D01*
X140780301Y-115531759D01*
X140780992Y-115563533D01*
X140784274Y-115747871D01*
X140785828Y-115905819D01*
X140785644Y-116026166D01*
X140783715Y-116097701D01*
X140781381Y-116112740D01*
X140747133Y-116103711D01*
X140655879Y-116078734D01*
X140515848Y-116040087D01*
X140335269Y-115990048D01*
X140122371Y-115930894D01*
X139885383Y-115864903D01*
X139821734Y-115847156D01*
X138873467Y-115582699D01*
X138864661Y-114018752D01*
X138855856Y-112454806D01*
X138949328Y-112476499D01*
G36*
X137671492Y-111564219D02*
G01*
X137672821Y-111309661D01*
X137675800Y-111103878D01*
X137680973Y-110942131D01*
X137688887Y-110819680D01*
X137700088Y-110731787D01*
X137715121Y-110673712D01*
X137734532Y-110640717D01*
X137758866Y-110628062D01*
X137788671Y-110631008D01*
X137824490Y-110644817D01*
X137866871Y-110664748D01*
X137900888Y-110679870D01*
X138020735Y-110750076D01*
X138154991Y-110860147D01*
X138283686Y-110991590D01*
X138386846Y-111125912D01*
X138392922Y-111135466D01*
X138408029Y-111160532D01*
X138420955Y-111187219D01*
X138431898Y-111220757D01*
X138441053Y-111266378D01*
X138448617Y-111329312D01*
X138454787Y-111414790D01*
X138459760Y-111528043D01*
X138463731Y-111674302D01*
X138466898Y-111858797D01*
X138469456Y-112086759D01*
X138471604Y-112363419D01*
X138473537Y-112694008D01*
X138475451Y-113083757D01*
X138476756Y-113366178D01*
X138486444Y-115478356D01*
X138392089Y-115455458D01*
X138179140Y-115375493D01*
X137999697Y-115244596D01*
X137848248Y-115057693D01*
X137738764Y-114853992D01*
X137725051Y-114821287D01*
X137713372Y-114784727D01*
X137703562Y-114738904D01*
X137695456Y-114678412D01*
X137688889Y-114597842D01*
X137683696Y-114491789D01*
X137679710Y-114354844D01*
X137676768Y-114181601D01*
X137674703Y-113966653D01*
X137673351Y-113704592D01*
X137672545Y-113390012D01*
X137672121Y-113017505D01*
X137671944Y-112667933D01*
X137671600Y-112238616D01*
X137671267Y-111872291D01*
X137671492Y-111564219D01*
G37*
X137671492Y-111564219D02*
X137672821Y-111309661D01*
X137675800Y-111103878D01*
X137680973Y-110942131D01*
X137688887Y-110819680D01*
X137700088Y-110731787D01*
X137715121Y-110673712D01*
X137734532Y-110640717D01*
X137758866Y-110628062D01*
X137788671Y-110631008D01*
X137824490Y-110644817D01*
X137866871Y-110664748D01*
X137900888Y-110679870D01*
X138020735Y-110750076D01*
X138154991Y-110860147D01*
X138283686Y-110991590D01*
X138386846Y-111125912D01*
X138392922Y-111135466D01*
X138408029Y-111160532D01*
X138420955Y-111187219D01*
X138431898Y-111220757D01*
X138441053Y-111266378D01*
X138448617Y-111329312D01*
X138454787Y-111414790D01*
X138459760Y-111528043D01*
X138463731Y-111674302D01*
X138466898Y-111858797D01*
X138469456Y-112086759D01*
X138471604Y-112363419D01*
X138473537Y-112694008D01*
X138475451Y-113083757D01*
X138476756Y-113366178D01*
X138486444Y-115478356D01*
X138392089Y-115455458D01*
X138179140Y-115375493D01*
X137999697Y-115244596D01*
X137848248Y-115057693D01*
X137738764Y-114853992D01*
X137725051Y-114821287D01*
X137713372Y-114784727D01*
X137703562Y-114738904D01*
X137695456Y-114678412D01*
X137688889Y-114597842D01*
X137683696Y-114491789D01*
X137679710Y-114354844D01*
X137676768Y-114181601D01*
X137674703Y-113966653D01*
X137673351Y-113704592D01*
X137672545Y-113390012D01*
X137672121Y-113017505D01*
X137671944Y-112667933D01*
X137671600Y-112238616D01*
X137671267Y-111872291D01*
X137671492Y-111564219D01*
G36*
X137745692Y-105649810D02*
G01*
X137877369Y-105679105D01*
X138024494Y-105756476D01*
X138171938Y-105869562D01*
X138304574Y-106006000D01*
X138407272Y-106153429D01*
X138437665Y-106215245D01*
X138447528Y-106249762D01*
X138455960Y-106306552D01*
X138463061Y-106390346D01*
X138468931Y-106505877D01*
X138473671Y-106657876D01*
X138477380Y-106851074D01*
X138480159Y-107090203D01*
X138482107Y-107379994D01*
X138483324Y-107725179D01*
X138483910Y-108130490D01*
X138484000Y-108408112D01*
X138483753Y-108776882D01*
X138483040Y-109124820D01*
X138481905Y-109446147D01*
X138480391Y-109735080D01*
X138478542Y-109985842D01*
X138476400Y-110192650D01*
X138474011Y-110349726D01*
X138471416Y-110451290D01*
X138468660Y-110491560D01*
X138468337Y-110492000D01*
X138430696Y-110481053D01*
X138349184Y-110452682D01*
X138265532Y-110421981D01*
X138078551Y-110318477D01*
X137918513Y-110156737D01*
X137782695Y-109933905D01*
X137764981Y-109896635D01*
X137749072Y-109861288D01*
X137735500Y-109825983D01*
X137724048Y-109785268D01*
X137714503Y-109733695D01*
X137706649Y-109665814D01*
X137700271Y-109576175D01*
X137695155Y-109459328D01*
X137691086Y-109309824D01*
X137687848Y-109122212D01*
X137685228Y-108891042D01*
X137683010Y-108610866D01*
X137680978Y-108276233D01*
X137678919Y-107881694D01*
X137677958Y-107689533D01*
X137667783Y-105649066D01*
X137745692Y-105649810D01*
G37*
X137745692Y-105649810D02*
X137877369Y-105679105D01*
X138024494Y-105756476D01*
X138171938Y-105869562D01*
X138304574Y-106006000D01*
X138407272Y-106153429D01*
X138437665Y-106215245D01*
X138447528Y-106249762D01*
X138455960Y-106306552D01*
X138463061Y-106390346D01*
X138468931Y-106505877D01*
X138473671Y-106657876D01*
X138477380Y-106851074D01*
X138480159Y-107090203D01*
X138482107Y-107379994D01*
X138483324Y-107725179D01*
X138483910Y-108130490D01*
X138484000Y-108408112D01*
X138483753Y-108776882D01*
X138483040Y-109124820D01*
X138481905Y-109446147D01*
X138480391Y-109735080D01*
X138478542Y-109985842D01*
X138476400Y-110192650D01*
X138474011Y-110349726D01*
X138471416Y-110451290D01*
X138468660Y-110491560D01*
X138468337Y-110492000D01*
X138430696Y-110481053D01*
X138349184Y-110452682D01*
X138265532Y-110421981D01*
X138078551Y-110318477D01*
X137918513Y-110156737D01*
X137782695Y-109933905D01*
X137764981Y-109896635D01*
X137749072Y-109861288D01*
X137735500Y-109825983D01*
X137724048Y-109785268D01*
X137714503Y-109733695D01*
X137706649Y-109665814D01*
X137700271Y-109576175D01*
X137695155Y-109459328D01*
X137691086Y-109309824D01*
X137687848Y-109122212D01*
X137685228Y-108891042D01*
X137683010Y-108610866D01*
X137680978Y-108276233D01*
X137678919Y-107881694D01*
X137677958Y-107689533D01*
X137667783Y-105649066D01*
X137745692Y-105649810D01*
D13*
X111460000Y-116810000D02*
X126700000Y-116810000D01*
X111460000Y-109190000D02*
X126700000Y-109190000D01*
X111460000Y-115540000D02*
X126700000Y-115540000D01*
X126700000Y-116810000D02*
X126700000Y-109190000D01*
X111460000Y-116810000D02*
X111460000Y-109190000D01*
X100460000Y-116810000D02*
X110620000Y-116810000D01*
X100460000Y-109190000D02*
X100460000Y-116810000D01*
X110620000Y-109190000D02*
X100460000Y-109190000D01*
X110620000Y-116810000D02*
X110620000Y-109190000D01*
X110620000Y-115540000D02*
X100460000Y-115540000D01*
X109460000Y-91670000D02*
X107810000Y-91670000D01*
X109460000Y-101950000D02*
X109460000Y-91670000D01*
X104160000Y-101950000D02*
X109460000Y-101950000D01*
X104160000Y-91670000D02*
X104160000Y-101950000D01*
X105810000Y-91670000D02*
X104160000Y-91670000D01*
X107810000Y-91670000D02*
G75*
G02X105810000Y-91670000I-1000000J0D01*
G01*
X104320000Y-85000000D02*
X105270000Y-85000000D01*
X110060000Y-85000000D02*
X109110000Y-85000000D01*
X105270000Y-85920000D02*
X109110000Y-85920000D01*
X105270000Y-84080000D02*
X105270000Y-85920000D01*
X109110000Y-84080000D02*
X105270000Y-84080000D01*
X109110000Y-85920000D02*
X109110000Y-84080000D01*
X116880000Y-93000000D02*
X117650000Y-93000000D01*
X124960000Y-93000000D02*
X124190000Y-93000000D01*
X117650000Y-94370000D02*
X124190000Y-94370000D01*
X117650000Y-91630000D02*
X117650000Y-94370000D01*
X124190000Y-91630000D02*
X117650000Y-91630000D01*
X124190000Y-94370000D02*
X124190000Y-91630000D01*
X91320000Y-85000000D02*
X92270000Y-85000000D01*
X97060000Y-85000000D02*
X96110000Y-85000000D01*
X92270000Y-85920000D02*
X96110000Y-85920000D01*
X92270000Y-84080000D02*
X92270000Y-85920000D01*
X96110000Y-84080000D02*
X92270000Y-84080000D01*
X96110000Y-85920000D02*
X96110000Y-84080000D01*
X99000000Y-88875000D02*
X85500000Y-88875000D01*
X99000000Y-98525000D02*
X99000000Y-88875000D01*
X85500000Y-98525000D02*
X99000000Y-98525000D01*
X85500000Y-88875000D02*
X85500000Y-98525000D01*
X95900000Y-104400000D02*
X95900000Y-107000000D01*
X81200000Y-104400000D02*
X95900000Y-104400000D01*
X95900000Y-113600000D02*
X94000000Y-113600000D01*
X95900000Y-110900000D02*
X95900000Y-113600000D01*
X81200000Y-113600000D02*
X81200000Y-104400000D01*
X90000000Y-113600000D02*
X81200000Y-113600000D01*
X95050000Y-104200000D02*
X96100000Y-104200000D01*
X96100000Y-105250000D02*
X96100000Y-104200000D01*
X122670000Y-101055000D02*
X122670000Y-101721000D01*
X122670000Y-98279000D02*
X122670000Y-98945000D01*
X117330000Y-101055000D02*
X117330000Y-101721000D01*
X117330000Y-98279000D02*
X117330000Y-98945000D01*
X117330000Y-101721000D02*
X122670000Y-101721000D01*
X117330000Y-98279000D02*
X122670000Y-98279000D01*
X120695225Y-83275000D02*
X120695225Y-83775000D01*
X120445225Y-83525000D02*
X120945225Y-83525000D01*
X125851000Y-84716000D02*
X125851000Y-85284000D01*
X125811000Y-84482000D02*
X125811000Y-85518000D01*
X125771000Y-84323000D02*
X125771000Y-85677000D01*
X125731000Y-84195000D02*
X125731000Y-85805000D01*
X125691000Y-84085000D02*
X125691000Y-85915000D01*
X125651000Y-83989000D02*
X125651000Y-86011000D01*
X125611000Y-83902000D02*
X125611000Y-86098000D01*
X125571000Y-83822000D02*
X125571000Y-86178000D01*
X125531000Y-86040000D02*
X125531000Y-86251000D01*
X125531000Y-83749000D02*
X125531000Y-83960000D01*
X125491000Y-86040000D02*
X125491000Y-86319000D01*
X125491000Y-83681000D02*
X125491000Y-83960000D01*
X125451000Y-86040000D02*
X125451000Y-86383000D01*
X125451000Y-83617000D02*
X125451000Y-83960000D01*
X125411000Y-86040000D02*
X125411000Y-86443000D01*
X125411000Y-83557000D02*
X125411000Y-83960000D01*
X125371000Y-86040000D02*
X125371000Y-86500000D01*
X125371000Y-83500000D02*
X125371000Y-83960000D01*
X125331000Y-86040000D02*
X125331000Y-86554000D01*
X125331000Y-83446000D02*
X125331000Y-83960000D01*
X125291000Y-86040000D02*
X125291000Y-86605000D01*
X125291000Y-83395000D02*
X125291000Y-83960000D01*
X125251000Y-86040000D02*
X125251000Y-86653000D01*
X125251000Y-83347000D02*
X125251000Y-83960000D01*
X125211000Y-86040000D02*
X125211000Y-86699000D01*
X125211000Y-83301000D02*
X125211000Y-83960000D01*
X125171000Y-86040000D02*
X125171000Y-86743000D01*
X125171000Y-83257000D02*
X125171000Y-83960000D01*
X125131000Y-86040000D02*
X125131000Y-86785000D01*
X125131000Y-83215000D02*
X125131000Y-83960000D01*
X125091000Y-86040000D02*
X125091000Y-86826000D01*
X125091000Y-83174000D02*
X125091000Y-83960000D01*
X125051000Y-86040000D02*
X125051000Y-86864000D01*
X125051000Y-83136000D02*
X125051000Y-83960000D01*
X125011000Y-86040000D02*
X125011000Y-86901000D01*
X125011000Y-83099000D02*
X125011000Y-83960000D01*
X124971000Y-86040000D02*
X124971000Y-86937000D01*
X124971000Y-83063000D02*
X124971000Y-83960000D01*
X124931000Y-86040000D02*
X124931000Y-86971000D01*
X124931000Y-83029000D02*
X124931000Y-83960000D01*
X124891000Y-86040000D02*
X124891000Y-87004000D01*
X124891000Y-82996000D02*
X124891000Y-83960000D01*
X124851000Y-86040000D02*
X124851000Y-87035000D01*
X124851000Y-82965000D02*
X124851000Y-83960000D01*
X124811000Y-86040000D02*
X124811000Y-87065000D01*
X124811000Y-82935000D02*
X124811000Y-83960000D01*
X124771000Y-86040000D02*
X124771000Y-87095000D01*
X124771000Y-82905000D02*
X124771000Y-83960000D01*
X124731000Y-86040000D02*
X124731000Y-87122000D01*
X124731000Y-82878000D02*
X124731000Y-83960000D01*
X124691000Y-86040000D02*
X124691000Y-87149000D01*
X124691000Y-82851000D02*
X124691000Y-83960000D01*
X124651000Y-86040000D02*
X124651000Y-87175000D01*
X124651000Y-82825000D02*
X124651000Y-83960000D01*
X124611000Y-86040000D02*
X124611000Y-87200000D01*
X124611000Y-82800000D02*
X124611000Y-83960000D01*
X124571000Y-86040000D02*
X124571000Y-87224000D01*
X124571000Y-82776000D02*
X124571000Y-83960000D01*
X124531000Y-86040000D02*
X124531000Y-87247000D01*
X124531000Y-82753000D02*
X124531000Y-83960000D01*
X124491000Y-86040000D02*
X124491000Y-87268000D01*
X124491000Y-82732000D02*
X124491000Y-83960000D01*
X124451000Y-86040000D02*
X124451000Y-87290000D01*
X124451000Y-82710000D02*
X124451000Y-83960000D01*
X124411000Y-86040000D02*
X124411000Y-87310000D01*
X124411000Y-82690000D02*
X124411000Y-83960000D01*
X124371000Y-86040000D02*
X124371000Y-87329000D01*
X124371000Y-82671000D02*
X124371000Y-83960000D01*
X124331000Y-86040000D02*
X124331000Y-87348000D01*
X124331000Y-82652000D02*
X124331000Y-83960000D01*
X124291000Y-86040000D02*
X124291000Y-87365000D01*
X124291000Y-82635000D02*
X124291000Y-83960000D01*
X124251000Y-86040000D02*
X124251000Y-87382000D01*
X124251000Y-82618000D02*
X124251000Y-83960000D01*
X124211000Y-86040000D02*
X124211000Y-87398000D01*
X124211000Y-82602000D02*
X124211000Y-83960000D01*
X124171000Y-86040000D02*
X124171000Y-87414000D01*
X124171000Y-82586000D02*
X124171000Y-83960000D01*
X124131000Y-86040000D02*
X124131000Y-87428000D01*
X124131000Y-82572000D02*
X124131000Y-83960000D01*
X124091000Y-86040000D02*
X124091000Y-87442000D01*
X124091000Y-82558000D02*
X124091000Y-83960000D01*
X124051000Y-86040000D02*
X124051000Y-87455000D01*
X124051000Y-82545000D02*
X124051000Y-83960000D01*
X124011000Y-86040000D02*
X124011000Y-87468000D01*
X124011000Y-82532000D02*
X124011000Y-83960000D01*
X123971000Y-86040000D02*
X123971000Y-87480000D01*
X123971000Y-82520000D02*
X123971000Y-83960000D01*
X123930000Y-86040000D02*
X123930000Y-87491000D01*
X123930000Y-82509000D02*
X123930000Y-83960000D01*
X123890000Y-86040000D02*
X123890000Y-87501000D01*
X123890000Y-82499000D02*
X123890000Y-83960000D01*
X123850000Y-86040000D02*
X123850000Y-87511000D01*
X123850000Y-82489000D02*
X123850000Y-83960000D01*
X123810000Y-86040000D02*
X123810000Y-87520000D01*
X123810000Y-82480000D02*
X123810000Y-83960000D01*
X123770000Y-86040000D02*
X123770000Y-87528000D01*
X123770000Y-82472000D02*
X123770000Y-83960000D01*
X123730000Y-86040000D02*
X123730000Y-87536000D01*
X123730000Y-82464000D02*
X123730000Y-83960000D01*
X123690000Y-86040000D02*
X123690000Y-87543000D01*
X123690000Y-82457000D02*
X123690000Y-83960000D01*
X123650000Y-86040000D02*
X123650000Y-87550000D01*
X123650000Y-82450000D02*
X123650000Y-83960000D01*
X123610000Y-86040000D02*
X123610000Y-87556000D01*
X123610000Y-82444000D02*
X123610000Y-83960000D01*
X123570000Y-86040000D02*
X123570000Y-87561000D01*
X123570000Y-82439000D02*
X123570000Y-83960000D01*
X123530000Y-86040000D02*
X123530000Y-87565000D01*
X123530000Y-82435000D02*
X123530000Y-83960000D01*
X123490000Y-86040000D02*
X123490000Y-87569000D01*
X123490000Y-82431000D02*
X123490000Y-83960000D01*
X123450000Y-82427000D02*
X123450000Y-87573000D01*
X123410000Y-82424000D02*
X123410000Y-87576000D01*
X123370000Y-82422000D02*
X123370000Y-87578000D01*
X123330000Y-82421000D02*
X123330000Y-87579000D01*
X123290000Y-82420000D02*
X123290000Y-87580000D01*
X123250000Y-82420000D02*
X123250000Y-87580000D01*
X125870000Y-85000000D02*
G75*
G03X125870000Y-85000000I-2620000J0D01*
G01*
D10*
X130952380Y-104786666D02*
X130476190Y-105120000D01*
X130952380Y-105358095D02*
X129952380Y-105358095D01*
X129952380Y-104977142D01*
X130000000Y-104881904D01*
X130047619Y-104834285D01*
X130142857Y-104786666D01*
X130285714Y-104786666D01*
X130380952Y-104834285D01*
X130428571Y-104881904D01*
X130476190Y-104977142D01*
X130476190Y-105358095D01*
X129952380Y-104453333D02*
X129952380Y-103834285D01*
X130333333Y-104167619D01*
X130333333Y-104024761D01*
X130380952Y-103929523D01*
X130428571Y-103881904D01*
X130523809Y-103834285D01*
X130761904Y-103834285D01*
X130857142Y-103881904D01*
X130904761Y-103929523D01*
X130952380Y-104024761D01*
X130952380Y-104310476D01*
X130904761Y-104405714D01*
X130857142Y-104453333D01*
X121666666Y-114452380D02*
X121666666Y-115166666D01*
X121619047Y-115309523D01*
X121523809Y-115404761D01*
X121380952Y-115452380D01*
X121285714Y-115452380D01*
X122571428Y-114785714D02*
X122571428Y-115452380D01*
X122333333Y-114404761D02*
X122095238Y-115119047D01*
X122714285Y-115119047D01*
X105206666Y-112452380D02*
X105206666Y-113166666D01*
X105159047Y-113309523D01*
X105063809Y-113404761D01*
X104920952Y-113452380D01*
X104825714Y-113452380D01*
X105587619Y-112452380D02*
X106206666Y-112452380D01*
X105873333Y-112833333D01*
X106016190Y-112833333D01*
X106111428Y-112880952D01*
X106159047Y-112928571D01*
X106206666Y-113023809D01*
X106206666Y-113261904D01*
X106159047Y-113357142D01*
X106111428Y-113404761D01*
X106016190Y-113452380D01*
X105730476Y-113452380D01*
X105635238Y-113404761D01*
X105587619Y-113357142D01*
X106048095Y-90122380D02*
X106048095Y-90931904D01*
X106095714Y-91027142D01*
X106143333Y-91074761D01*
X106238571Y-91122380D01*
X106429047Y-91122380D01*
X106524285Y-91074761D01*
X106571904Y-91027142D01*
X106619523Y-90931904D01*
X106619523Y-90122380D01*
X107619523Y-91122380D02*
X107048095Y-91122380D01*
X107333809Y-91122380D02*
X107333809Y-90122380D01*
X107238571Y-90265238D01*
X107143333Y-90360476D01*
X107048095Y-90408095D01*
X107023333Y-87372380D02*
X106690000Y-86896190D01*
X106451904Y-87372380D02*
X106451904Y-86372380D01*
X106832857Y-86372380D01*
X106928095Y-86420000D01*
X106975714Y-86467619D01*
X107023333Y-86562857D01*
X107023333Y-86705714D01*
X106975714Y-86800952D01*
X106928095Y-86848571D01*
X106832857Y-86896190D01*
X106451904Y-86896190D01*
X107880476Y-86705714D02*
X107880476Y-87372380D01*
X107642380Y-86324761D02*
X107404285Y-87039047D01*
X108023333Y-87039047D01*
X120753333Y-95822380D02*
X120420000Y-95346190D01*
X120181904Y-95822380D02*
X120181904Y-94822380D01*
X120562857Y-94822380D01*
X120658095Y-94870000D01*
X120705714Y-94917619D01*
X120753333Y-95012857D01*
X120753333Y-95155714D01*
X120705714Y-95250952D01*
X120658095Y-95298571D01*
X120562857Y-95346190D01*
X120181904Y-95346190D01*
X121134285Y-94917619D02*
X121181904Y-94870000D01*
X121277142Y-94822380D01*
X121515238Y-94822380D01*
X121610476Y-94870000D01*
X121658095Y-94917619D01*
X121705714Y-95012857D01*
X121705714Y-95108095D01*
X121658095Y-95250952D01*
X121086666Y-95822380D01*
X121705714Y-95822380D01*
X94023333Y-87372380D02*
X93690000Y-86896190D01*
X93451904Y-87372380D02*
X93451904Y-86372380D01*
X93832857Y-86372380D01*
X93928095Y-86420000D01*
X93975714Y-86467619D01*
X94023333Y-86562857D01*
X94023333Y-86705714D01*
X93975714Y-86800952D01*
X93928095Y-86848571D01*
X93832857Y-86896190D01*
X93451904Y-86896190D01*
X94975714Y-87372380D02*
X94404285Y-87372380D01*
X94690000Y-87372380D02*
X94690000Y-86372380D01*
X94594761Y-86515238D01*
X94499523Y-86610476D01*
X94404285Y-86658095D01*
X88952380Y-94033333D02*
X89666666Y-94033333D01*
X89809523Y-94080952D01*
X89904761Y-94176190D01*
X89952380Y-94319047D01*
X89952380Y-94414285D01*
X89047619Y-93604761D02*
X89000000Y-93557142D01*
X88952380Y-93461904D01*
X88952380Y-93223809D01*
X89000000Y-93128571D01*
X89047619Y-93080952D01*
X89142857Y-93033333D01*
X89238095Y-93033333D01*
X89380952Y-93080952D01*
X89952380Y-93652380D01*
X89952380Y-93033333D01*
X94928571Y-94652380D02*
X94976190Y-94509523D01*
X95023809Y-94461904D01*
X95119047Y-94414285D01*
X95261904Y-94414285D01*
X95357142Y-94461904D01*
X95404761Y-94509523D01*
X95452380Y-94604761D01*
X95452380Y-94985714D01*
X94452380Y-94985714D01*
X94452380Y-94652380D01*
X94500000Y-94557142D01*
X94547619Y-94509523D01*
X94642857Y-94461904D01*
X94738095Y-94461904D01*
X94833333Y-94509523D01*
X94880952Y-94557142D01*
X94928571Y-94652380D01*
X94928571Y-94985714D01*
X95452380Y-93985714D02*
X94452380Y-93985714D01*
X95452380Y-93414285D01*
X94452380Y-93414285D01*
X95357142Y-92366666D02*
X95404761Y-92414285D01*
X95452380Y-92557142D01*
X95452380Y-92652380D01*
X95404761Y-92795238D01*
X95309523Y-92890476D01*
X95214285Y-92938095D01*
X95023809Y-92985714D01*
X94880952Y-92985714D01*
X94690476Y-92938095D01*
X94595238Y-92890476D01*
X94500000Y-92795238D01*
X94452380Y-92652380D01*
X94452380Y-92557142D01*
X94500000Y-92414285D01*
X94547619Y-92366666D01*
X86216666Y-114202380D02*
X86216666Y-114916666D01*
X86169047Y-115059523D01*
X86073809Y-115154761D01*
X85930952Y-115202380D01*
X85835714Y-115202380D01*
X87216666Y-115202380D02*
X86645238Y-115202380D01*
X86930952Y-115202380D02*
X86930952Y-114202380D01*
X86835714Y-114345238D01*
X86740476Y-114440476D01*
X86645238Y-114488095D01*
X119833333Y-97507142D02*
X119785714Y-97554761D01*
X119642857Y-97602380D01*
X119547619Y-97602380D01*
X119404761Y-97554761D01*
X119309523Y-97459523D01*
X119261904Y-97364285D01*
X119214285Y-97173809D01*
X119214285Y-97030952D01*
X119261904Y-96840476D01*
X119309523Y-96745238D01*
X119404761Y-96650000D01*
X119547619Y-96602380D01*
X119642857Y-96602380D01*
X119785714Y-96650000D01*
X119833333Y-96697619D01*
X120214285Y-96697619D02*
X120261904Y-96650000D01*
X120357142Y-96602380D01*
X120595238Y-96602380D01*
X120690476Y-96650000D01*
X120738095Y-96697619D01*
X120785714Y-96792857D01*
X120785714Y-96888095D01*
X120738095Y-97030952D01*
X120166666Y-97602380D01*
X120785714Y-97602380D01*
X123083333Y-81607142D02*
X123035714Y-81654761D01*
X122892857Y-81702380D01*
X122797619Y-81702380D01*
X122654761Y-81654761D01*
X122559523Y-81559523D01*
X122511904Y-81464285D01*
X122464285Y-81273809D01*
X122464285Y-81130952D01*
X122511904Y-80940476D01*
X122559523Y-80845238D01*
X122654761Y-80750000D01*
X122797619Y-80702380D01*
X122892857Y-80702380D01*
X123035714Y-80750000D01*
X123083333Y-80797619D01*
X124035714Y-81702380D02*
X123464285Y-81702380D01*
X123750000Y-81702380D02*
X123750000Y-80702380D01*
X123654761Y-80845238D01*
X123559523Y-80940476D01*
X123464285Y-80988095D01*
%LPC*%
D14*
X130000000Y-112240000D03*
X130000000Y-97000000D03*
X124160000Y-113000000D03*
X119080000Y-113000000D03*
D15*
X114000000Y-113000000D03*
D14*
X108080000Y-113000000D03*
D15*
X103000000Y-113000000D03*
D16*
X110620000Y-93000000D03*
X103000000Y-100620000D03*
X110620000Y-95540000D03*
X103000000Y-98080000D03*
X110620000Y-98080000D03*
X103000000Y-95540000D03*
X110620000Y-100620000D03*
D17*
X103000000Y-93000000D03*
D18*
X103380000Y-85000000D03*
D19*
X111000000Y-85000000D03*
D16*
X115840000Y-93000000D03*
D20*
X126000000Y-93000000D03*
D18*
X90380000Y-85000000D03*
D19*
X98000000Y-85000000D03*
D21*
X97800000Y-93700000D03*
D14*
X90000000Y-89900000D03*
X90000000Y-97500000D03*
D22*
G36*
X92988764Y-111903336D02*
G01*
X93076179Y-111916303D01*
X93161901Y-111937775D01*
X93245106Y-111967546D01*
X93324993Y-112005330D01*
X93400791Y-112050762D01*
X93471771Y-112103404D01*
X93537250Y-112162750D01*
X93596596Y-112228229D01*
X93649238Y-112299209D01*
X93694670Y-112375007D01*
X93732454Y-112454894D01*
X93762225Y-112538099D01*
X93783697Y-112623821D01*
X93796664Y-112711236D01*
X93801000Y-112799500D01*
X93801000Y-114600500D01*
X93796664Y-114688764D01*
X93783697Y-114776179D01*
X93762225Y-114861901D01*
X93732454Y-114945106D01*
X93694670Y-115024993D01*
X93649238Y-115100791D01*
X93596596Y-115171771D01*
X93537250Y-115237250D01*
X93471771Y-115296596D01*
X93400791Y-115349238D01*
X93324993Y-115394670D01*
X93245106Y-115432454D01*
X93161901Y-115462225D01*
X93076179Y-115483697D01*
X92988764Y-115496664D01*
X92900500Y-115501000D01*
X91099500Y-115501000D01*
X91011236Y-115496664D01*
X90923821Y-115483697D01*
X90838099Y-115462225D01*
X90754894Y-115432454D01*
X90675007Y-115394670D01*
X90599209Y-115349238D01*
X90528229Y-115296596D01*
X90462750Y-115237250D01*
X90403404Y-115171771D01*
X90350762Y-115100791D01*
X90305330Y-115024993D01*
X90267546Y-114945106D01*
X90237775Y-114861901D01*
X90216303Y-114776179D01*
X90203336Y-114688764D01*
X90199000Y-114600500D01*
X90199000Y-112799500D01*
X90203336Y-112711236D01*
X90216303Y-112623821D01*
X90237775Y-112538099D01*
X90267546Y-112454894D01*
X90305330Y-112375007D01*
X90350762Y-112299209D01*
X90403404Y-112228229D01*
X90462750Y-112162750D01*
X90528229Y-112103404D01*
X90599209Y-112050762D01*
X90675007Y-112005330D01*
X90754894Y-111967546D01*
X90838099Y-111937775D01*
X90923821Y-111916303D01*
X91011236Y-111903336D01*
X91099500Y-111899000D01*
X92900500Y-111899000D01*
X92988764Y-111903336D01*
G37*
G36*
X89851512Y-107202734D02*
G01*
X89926793Y-107213901D01*
X90000616Y-107232393D01*
X90072271Y-107258031D01*
X90141068Y-107290570D01*
X90206345Y-107329695D01*
X90267472Y-107375030D01*
X90323861Y-107426139D01*
X90374970Y-107482528D01*
X90420305Y-107543655D01*
X90459430Y-107608932D01*
X90491969Y-107677729D01*
X90517607Y-107749384D01*
X90536099Y-107823207D01*
X90547266Y-107898488D01*
X90551000Y-107974500D01*
X90551000Y-110025500D01*
X90547266Y-110101512D01*
X90536099Y-110176793D01*
X90517607Y-110250616D01*
X90491969Y-110322271D01*
X90459430Y-110391068D01*
X90420305Y-110456345D01*
X90374970Y-110517472D01*
X90323861Y-110573861D01*
X90267472Y-110624970D01*
X90206345Y-110670305D01*
X90141068Y-110709430D01*
X90072271Y-110741969D01*
X90000616Y-110767607D01*
X89926793Y-110786099D01*
X89851512Y-110797266D01*
X89775500Y-110801000D01*
X88224500Y-110801000D01*
X88148488Y-110797266D01*
X88073207Y-110786099D01*
X87999384Y-110767607D01*
X87927729Y-110741969D01*
X87858932Y-110709430D01*
X87793655Y-110670305D01*
X87732528Y-110624970D01*
X87676139Y-110573861D01*
X87625030Y-110517472D01*
X87579695Y-110456345D01*
X87540570Y-110391068D01*
X87508031Y-110322271D01*
X87482393Y-110250616D01*
X87463901Y-110176793D01*
X87452734Y-110101512D01*
X87449000Y-110025500D01*
X87449000Y-107974500D01*
X87452734Y-107898488D01*
X87463901Y-107823207D01*
X87482393Y-107749384D01*
X87508031Y-107677729D01*
X87540570Y-107608932D01*
X87579695Y-107543655D01*
X87625030Y-107482528D01*
X87676139Y-107426139D01*
X87732528Y-107375030D01*
X87793655Y-107329695D01*
X87858932Y-107290570D01*
X87927729Y-107258031D01*
X87999384Y-107232393D01*
X88073207Y-107213901D01*
X88148488Y-107202734D01*
X88224500Y-107199000D01*
X89775500Y-107199000D01*
X89851512Y-107202734D01*
G37*
D23*
X95000000Y-109000000D03*
D24*
X133500000Y-88000000D03*
X133500000Y-105000000D03*
X94000000Y-105000000D03*
X94000000Y-88000000D03*
D20*
X122500000Y-100000000D03*
X117500000Y-100000000D03*
X124500000Y-85000000D03*
D17*
X122000000Y-85000000D03*
M02*
